<?xml version="1.0" standalone="no"?><!DOCTYPE svg PUBLIC "-//W3C//DTD SVG 1.1//EN" "http://www.w3.org/Graphics/SVG/1.1/DTD/svg11.dtd"><svg height="1024" node-id="1" sillyvg="true" template-height="1024" template-width="1024" version="1.1" viewBox="0 0 1024 1024" width="1024" xmlns="http://www.w3.org/2000/svg" xmlns:xlink="http://www.w3.org/1999/xlink"><defs node-id="286"></defs><path d="M 628.60 245.10 L 625.60 250.10 L 623.20 255.40 L 621.20 260.90 L 619.80 266.60 L 607.80 267.70 L 607.80 290.90 L 619.80 292.10 L 621.20 297.70 L 623.20 303.20 L 625.60 308.50 L 628.60 313.50 L 621.00 322.80 L 637.40 339.20 L 646.70 331.50 L 651.70 334.50 L 657.00 337.00 L 662.50 338.90 L 668.20 340.40 L 669.30 352.40 L 692.50 352.40 L 693.60 340.40 L 699.30 338.90 L 704.80 337.00 L 710.10 334.50 L 715.10 331.50 L 724.40 339.20 L 740.80 322.80 L 733.10 313.50 L 736.10 308.50 L 738.60 303.20 L 740.50 297.70 L 742.00 292.10 L 754.00 290.90 L 754.00 267.70 L 742.00 266.60 L 740.50 260.90 L 738.60 255.40 L 736.10 250.10 L 733.10 245.10 L 740.80 235.80 L 724.30 219.40 L 715.10 227.10 L 710.00 224.10 L 704.70 221.60 L 699.30 219.70 L 693.60 218.20 L 692.50 206.20 L 669.20 206.20 L 668.10 218.20 L 662.40 219.70 L 657.00 221.60 L 651.70 224.10 L 646.60 227.10 L 637.40 219.40 L 621.00 235.80 Z M 707.50 252.60 L 712.30 258.50 L 715.70 264.90 L 717.30 269.60 L 718.20 274.30 L 718.60 279.20 L 717.90 286.50 L 715.70 293.70 L 712.10 300.40 L 707.50 306.00 L 703.80 309.30 L 699.80 311.90 L 695.40 314.10 L 688.40 316.30 L 680.90 317.00 L 673.30 316.30 L 666.30 314.10 L 661.90 311.90 L 657.90 309.30 L 654.20 306.00 L 649.60 300.40 L 646.00 293.70 L 643.80 286.50 L 643.10 279.20 L 643.50 274.30 L 644.40 269.60 L 646.00 264.90 L 649.40 258.50 L 654.20 252.60 L 660.10 247.80 L 666.70 244.30 L 671.30 242.80 L 676.00 241.90 L 680.90 241.60 L 685.70 241.90 L 690.40 242.80 L 695.00 244.30 L 701.60 247.80 L 707.50 252.60 Z" fill="#d6e6f2" fill-rule="nonzero" node-id="288" stroke="none" target-height="146.2" target-width="146.20001" target-x="607.8" target-y="206.2"></path><path d="M 394.80 113.20 L 567.80 113.20 L 569.10 113.40 L 571.30 114.70 L 572.60 116.90 L 572.80 118.20 L 572.80 252.70 L 572.60 254.00 L 571.30 256.20 L 569.10 257.50 L 394.80 257.60 L 393.50 257.50 L 391.30 256.20 L 390.50 255.10 L 389.90 252.70 L 389.90 118.20 L 390.00 116.90 L 391.30 114.70 L 392.40 113.90 L 394.80 113.20 Z" fill="#d6e6f2" fill-rule="nonzero" node-id="290" stroke="none" target-height="144.40001" target-width="182.9" target-x="389.9" target-y="113.2"></path><path d="M 394.50 113.20 L 568.20 113.20 L 570.50 113.80 L 572.20 115.50 L 572.60 116.50 L 572.80 138.40 L 389.90 138.40 L 390.00 116.60 L 390.50 115.50 L 392.20 113.90 L 394.50 113.20 Z" fill="#c1daea" fill-rule="nonzero" node-id="292" stroke="none" target-height="25.199997" target-width="182.9" target-x="389.9" target-y="113.2"></path><g node-id="942"><path d="M 563.10 127.70 L 562.80 129.30 L 562.20 130.70 L 561.10 131.90 L 559.70 132.70 L 558.10 133.10 L 556.50 133.10 L 555.00 132.50 L 553.70 131.50 L 552.70 130.20 L 552.20 128.70 L 552.10 127.10 L 552.50 125.50 L 553.30 124.10 L 554.50 123.10 L 556.00 122.40 L 557.60 122.20 L 559.00 122.40 L 561.50 123.80 L 562.40 124.90 L 563.10 127.70 Z" fill="#fafafa" fill-opacity="0.5" fill-rule="nonzero" group-id="1" node-id="296" stroke="none" target-height="10.900009" target-width="11" target-x="552.1" target-y="122.2"></path></g><g node-id="943"><path d="M 547.50 127.70 L 547.20 129.20 L 545.80 131.50 L 543.50 132.90 L 542.00 133.20 L 540.50 132.90 L 538.10 131.50 L 536.70 129.20 L 536.50 127.70 L 536.70 126.20 L 538.10 123.80 L 540.50 122.40 L 542.00 122.20 L 544.70 122.90 L 545.90 123.80 L 547.30 126.20 L 547.50 127.70 Z" fill="#fafafa" fill-opacity="0.5" fill-rule="nonzero" group-id="2" node-id="301" stroke="none" target-height="11" target-width="11" target-x="536.5" target-y="122.2"></path></g><g node-id="944"><path d="M 531.80 127.70 L 531.60 129.20 L 530.20 131.50 L 527.80 132.90 L 526.30 133.20 L 523.60 132.40 L 521.60 130.40 L 521.10 129.20 L 520.80 127.70 L 521.60 124.90 L 523.60 122.90 L 526.30 122.20 L 527.80 122.40 L 530.20 123.80 L 531.60 126.20 L 531.80 127.70 Z" fill="#fafafa" fill-opacity="0.5" fill-rule="nonzero" group-id="3" node-id="306" stroke="none" target-height="11" target-width="11" target-x="520.8" target-y="122.2"></path></g><g node-id="945"><path d="M 431.90 159.50 L 529.70 159.50 L 529.70 164.60 L 431.90 164.60 Z" fill="#ffffff" fill-opacity="0.6" fill-rule="nonzero" group-id="4" node-id="311" stroke="none" target-height="5.100006" target-width="97.80002" target-x="431.9" target-y="159.5"></path></g><path d="M 433.40 170.60 L 503.40 170.60 L 503.40 175.70 L 433.40 175.70 Z" fill="#c1daea" fill-rule="nonzero" node-id="314" stroke="none" target-height="5.099991" target-width="70" target-x="433.4" target-y="170.6"></path><path d="M 538.40 159.50 L 556.30 159.50 L 556.30 164.60 L 538.40 164.60 Z" fill="#b5d6ea" fill-rule="nonzero" node-id="316" stroke="none" target-height="5.100006" target-width="17.899963" target-x="538.4" target-y="159.5"></path><path d="M 405.80 159.50 L 425.10 159.50 L 425.10 164.60 L 405.80 164.60 Z" fill="#b5d6ea" fill-rule="nonzero" node-id="318" stroke="none" target-height="5.100006" target-width="19.300018" target-x="405.8" target-y="159.5"></path><path d="M 431.90 182.90 L 529.70 182.90 L 529.70 188.00 L 431.90 188.00 Z" fill="#b5d6ea" fill-rule="nonzero" node-id="320" stroke="none" target-height="5.100006" target-width="97.80002" target-x="431.9" target-y="182.9"></path><g node-id="946"><path d="M 538.40 182.90 L 556.30 182.90 L 556.30 188.00 L 538.40 188.00 Z" fill="#ffffff" fill-opacity="0.6" fill-rule="nonzero" group-id="5" node-id="324" stroke="none" target-height="5.100006" target-width="17.899963" target-x="538.4" target-y="182.9"></path></g><path d="M 405.80 182.90 L 425.10 182.90 L 425.10 188.00 L 405.80 188.00 Z" fill="#b5d6ea" fill-rule="nonzero" node-id="327" stroke="none" target-height="5.100006" target-width="19.300018" target-x="405.8" target-y="182.9"></path><g node-id="947"><path d="M 431.90 231.70 L 529.70 231.70 L 529.70 236.80 L 431.90 236.80 Z" fill="#ffffff" fill-opacity="0.6" fill-rule="nonzero" group-id="6" node-id="331" stroke="none" target-height="5.100006" target-width="97.80002" target-x="431.9" target-y="231.7"></path></g><g node-id="948"><path d="M 538.40 231.70 L 556.30 231.70 L 556.30 236.80 L 538.40 236.80 Z" fill="#ffffff" fill-opacity="0.6" fill-rule="nonzero" group-id="7" node-id="336" stroke="none" target-height="5.100006" target-width="17.899963" target-x="538.4" target-y="231.7"></path></g><path d="M 431.90 195.20 L 529.70 195.20 L 529.70 200.30 L 431.90 200.30 Z" fill="#b5d6ea" fill-rule="nonzero" node-id="339" stroke="none" target-height="5.100006" target-width="97.80002" target-x="431.9" target-y="195.2"></path><path d="M 538.40 195.20 L 556.30 195.20 L 556.30 200.30 L 538.40 200.30 Z" fill="#c1daea" fill-rule="nonzero" node-id="341" stroke="none" target-height="5.100006" target-width="17.899963" target-x="538.4" target-y="195.2"></path><path d="M 405.80 195.20 L 425.10 195.20 L 425.10 200.30 L 405.80 200.30 Z" fill="#c1daea" fill-rule="nonzero" node-id="343" stroke="none" target-height="5.100006" target-width="19.300018" target-x="405.8" target-y="195.2"></path><path d="M 511.10 170.80 L 557.60 170.80 L 557.60 175.90 L 511.10 175.90 Z" fill="#b5d6ea" fill-rule="nonzero" node-id="345" stroke="none" target-height="5.099991" target-width="46.49997" target-x="511.1" target-y="170.8"></path><g node-id="949"><path d="M 431.90 206.00 L 501.90 206.00 L 501.90 211.10 L 431.90 211.10 Z" fill="#ffffff" fill-opacity="0.6" fill-rule="nonzero" group-id="8" node-id="349" stroke="none" target-height="5.100006" target-width="70" target-x="431.9" target-y="206"></path></g><path d="M 509.60 206.20 L 556.10 206.20 L 556.10 211.30 L 509.60 211.30 Z" fill="#b5d6ea" fill-rule="nonzero" node-id="352" stroke="none" target-height="5.100006" target-width="46.49997" target-x="509.6" target-y="206.2"></path><path d="M 431.90 217.10 L 466.90 217.10 L 466.90 222.30 L 431.90 222.30 Z" fill="#c1daea" fill-rule="nonzero" node-id="354" stroke="none" target-height="5.199997" target-width="35" target-x="431.9" target-y="217.1"></path><path d="M 849.90 155.70 L 829.20 165.40 L 849.90 175.10 L 849.90 182.90 L 822.20 169.50 L 822.20 161.40 L 849.90 147.90 Z" fill="#e1e1e1" fill-rule="nonzero" node-id="356" stroke="none" target-height="35" target-width="27.700012" target-x="822.2" target-y="147.9"></path><path d="M 913.00 161.40 L 913.00 169.50 L 885.30 182.90 L 885.30 175.10 L 906.00 165.40 L 885.30 155.70 L 885.30 147.90 Z" fill="#e1e1e1" fill-rule="nonzero" node-id="358" stroke="none" target-height="35" target-width="27.700012" target-x="885.3" target-y="147.9"></path><path d="M 872.50 142.50 L 859.00 189.20 L 865.70 189.20 L 879.20 142.50 L 872.50 142.50 Z" fill="#e1e1e1" fill-rule="nonzero" node-id="360" stroke="none" target-height="46.699997" target-width="20.200012" target-x="859" target-y="142.5"></path><path d="M 118.40 464.60 L 116.10 468.60 L 114.40 472.70 L 113.20 477.20 L 106.20 477.80 L 106.20 491.40 L 113.20 492.00 L 114.40 496.40 L 116.10 500.60 L 118.40 504.60 L 113.90 510.00 L 123.50 519.60 L 128.90 515.10 L 132.90 517.40 L 137.00 519.10 L 141.40 520.30 L 142.10 527.30 L 155.70 527.30 L 156.30 520.30 L 160.70 519.10 L 164.90 517.40 L 168.90 515.10 L 174.30 519.60 L 183.90 510.00 L 179.40 504.60 L 181.60 500.60 L 183.40 496.40 L 184.60 492.00 L 191.60 491.30 L 191.60 477.80 L 184.60 477.20 L 183.40 472.70 L 181.60 468.60 L 179.40 464.60 L 183.90 459.20 L 174.30 449.60 L 168.90 454.10 L 164.90 451.80 L 160.70 450.10 L 156.30 448.90 L 155.70 441.90 L 142.10 441.90 L 141.40 448.90 L 137.00 450.10 L 132.90 451.80 L 128.90 454.10 L 123.50 449.60 L 113.90 459.20 Z M 164.50 469.00 L 166.40 471.30 L 169.30 476.30 L 170.20 479.00 L 170.80 482.70 L 170.80 486.40 L 170.10 490.10 L 169.30 492.80 L 166.40 497.80 L 164.40 500.10 L 162.10 502.10 L 157.10 504.90 L 154.40 505.80 L 150.70 506.50 L 147.00 506.50 L 143.30 505.80 L 140.60 504.90 L 135.60 502.10 L 133.30 500.10 L 131.30 497.80 L 128.50 492.80 L 127.60 490.10 L 127.00 486.40 L 126.90 482.70 L 127.60 479.00 L 128.50 476.30 L 131.30 471.30 L 133.30 469.00 L 135.50 467.10 L 140.40 464.20 L 146.00 462.70 L 148.90 462.50 L 151.80 462.70 L 157.30 464.20 L 162.30 467.10 L 164.50 469.00 Z" fill="#e1e1e1" fill-rule="nonzero" node-id="362" stroke="none" target-height="85.399994" target-width="85.40001" target-x="106.2" target-y="441.9"></path><path d="M 887.20 306.70 L 885.30 310.00 L 883.90 313.40 L 882.90 317.10 L 877.10 317.60 L 877.10 328.90 L 882.90 329.50 L 883.90 333.10 L 885.30 336.60 L 887.20 339.90 L 883.50 344.40 L 891.50 352.40 L 896.00 348.70 L 899.30 350.50 L 902.70 351.90 L 906.40 352.90 L 906.90 358.80 L 918.20 358.80 L 918.70 352.90 L 922.40 351.90 L 925.90 350.50 L 929.20 348.70 L 933.60 352.40 L 941.60 344.40 L 937.90 339.90 L 939.80 336.60 L 941.20 333.10 L 942.20 329.50 L 948.00 328.90 L 948.00 317.60 L 942.20 317.10 L 941.20 313.40 L 939.80 310.00 L 937.90 306.70 L 941.60 302.20 L 933.60 294.20 L 929.20 297.90 L 925.90 296.00 L 922.40 294.60 L 918.70 293.60 L 918.20 287.80 L 906.90 287.80 L 906.30 293.60 L 902.70 294.60 L 899.20 296.00 L 895.90 297.90 L 891.40 294.20 L 883.40 302.20 Z M 925.50 310.30 L 927.60 312.90 L 929.20 315.70 L 930.20 318.60 L 930.70 321.70 L 930.70 324.80 L 930.20 327.90 L 929.20 330.90 L 927.60 333.60 L 925.40 336.20 L 922.90 338.30 L 920.10 339.90 L 917.20 341.00 L 914.10 341.50 L 911.00 341.50 L 907.90 341.00 L 904.90 339.90 L 902.20 338.30 L 899.60 336.20 L 897.40 333.60 L 895.90 330.90 L 894.80 327.90 L 894.30 324.80 L 894.30 321.70 L 894.80 318.60 L 895.90 315.70 L 897.40 312.90 L 899.60 310.30 L 902.20 308.20 L 904.90 306.60 L 907.90 305.60 L 911.00 305.10 L 914.10 305.10 L 917.20 305.60 L 920.10 306.60 L 922.90 308.20 L 925.50 310.30 Z" fill="#d6e6f2" fill-rule="nonzero" node-id="364" stroke="none" target-height="71" target-width="70.900024" target-x="877.1" target-y="287.8"></path><path d="M 917.70 904.10 L 916.30 905.10 L 913.30 905.80 L 907.10 906.80 L 895.50 907.90 L 856.40 910.30 L 801.40 912.30 L 693.70 914.60 L 609.60 915.50 L 518.00 915.80 L 426.30 915.50 L 342.20 914.60 L 234.50 912.30 L 206.10 911.40 L 158.90 909.20 L 140.50 907.90 L 128.80 906.80 L 122.70 905.80 L 118.50 904.50 L 118.30 904.10 L 118.50 903.60 L 122.70 902.30 L 128.80 901.40 L 140.50 900.20 L 179.50 897.80 L 234.50 895.80 L 342.20 893.50 L 426.30 892.60 L 518.00 892.30 L 609.60 892.60 L 693.70 893.50 L 801.40 895.80 L 856.40 897.80 L 895.50 900.20 L 907.10 901.40 L 913.30 902.30 L 916.30 903.10 L 917.70 904.10 Z" fill="#d7e4f9" fill-rule="nonzero" node-id="366" stroke="none" target-height="23.5" target-width="799.4" target-x="118.3" target-y="892.3"></path><g node-id="950"><path d="M 219.40 279.30 L 273.00 279.30 L 273.00 724.30 L 217.60 724.30 L 215.70 724.00 L 213.90 723.30 L 212.50 722.20 L 211.30 720.70 L 210.60 718.90 L 210.30 717.00 L 210.30 288.40 L 210.60 286.00 L 211.60 283.80 L 213.00 282.00 L 214.80 280.50 L 217.00 279.60 L 219.40 279.30 Z" fill="#253369" fill-rule="nonzero" group-id="9" node-id="370" stroke="none" target-height="445" target-width="62.699997" target-x="210.3" target-y="279.3"></path></g><g node-id="951"><path d="M 459.50 716.60 L 439.60 818.60 L 468.50 818.60 L 491.50 717.50 L 459.50 716.60 Z" fill="#253369" fill-rule="nonzero" group-id="10" node-id="375" stroke="none" target-height="102" target-width="51.899994" target-x="439.6" target-y="716.6"></path></g><g node-id="952"><path d="M 415.30 817.40 L 429.90 817.40 L 429.90 832.00 L 415.30 832.00 Z" fill="#253369" fill-rule="nonzero" group-id="11" node-id="380" stroke="none" target-height="14.599976" target-width="14.600006" target-x="415.3" target-y="817.4"></path></g><g node-id="953"><path d="M 219.40 279.30 L 273.00 279.30 L 273.00 724.30 L 217.60 724.30 L 215.70 724.00 L 213.90 723.30 L 212.50 722.20 L 211.30 720.70 L 210.60 718.90 L 210.30 717.00 L 210.30 288.40 L 210.60 286.00 L 211.60 283.80 L 213.00 282.00 L 214.80 280.50 L 217.00 279.60 L 219.40 279.30 Z" fill="#253369" fill-opacity="0.5" fill-rule="nonzero" group-id="12" node-id="385" stroke="none" target-height="445" target-width="62.699997" target-x="210.3" target-y="279.3"></path></g><g node-id="954"><path d="M 459.50 716.60 L 439.60 818.60 L 468.50 818.60 L 491.50 717.50 L 459.50 716.60 Z" fill="#253369" fill-opacity="0.5" fill-rule="nonzero" group-id="13" node-id="390" stroke="none" target-height="102" target-width="51.899994" target-x="439.6" target-y="716.6"></path></g><g node-id="955"><path d="M 415.30 817.40 L 429.90 817.40 L 429.90 832.00 L 415.30 832.00 Z" fill="#253369" fill-opacity="0.5" fill-rule="nonzero" group-id="14" node-id="395" stroke="none" target-height="14.599976" target-width="14.600006" target-x="415.3" target-y="817.4"></path></g><path d="M 640.80 832.00 L 455.40 832.00 L 481.70 677.50 L 605.10 677.50 L 640.80 832.00 Z" fill="#1a2e35" fill-rule="nonzero" node-id="398" stroke="none" target-height="154.5" target-width="185.4" target-x="455.4" target-y="677.5"></path><path d="M 640.80 832.00 L 455.40 832.00 L 481.70 677.50 L 605.10 677.50 L 640.80 832.00 Z" fill="#253369" fill-rule="nonzero" node-id="400" stroke="none" target-height="154.5" target-width="185.4" target-x="455.4" target-y="677.5"></path><path d="M 425.80 817.40 L 666.30 817.40 L 666.30 832.00 L 425.80 832.00 Z" fill="#253369" fill-rule="nonzero" node-id="402" stroke="none" target-height="14.599976" target-width="240.5" target-x="425.8" target-y="817.4"></path><g node-id="956"><path d="M 425.80 817.40 L 666.30 817.40 L 666.30 832.00 L 425.80 832.00 Z" fill="#253369" fill-opacity="0.7" fill-rule="nonzero" group-id="15" node-id="406" stroke="none" target-height="14.599976" target-width="240.5" target-x="425.8" target-y="817.4"></path></g><path d="M 240.60 279.30 L 841.90 279.30 L 845.00 279.60 L 847.90 280.50 L 850.50 282.00 L 852.90 283.90 L 854.80 286.30 L 856.20 289.00 L 857.10 291.90 L 857.30 294.90 L 857.30 708.70 L 857.10 711.70 L 856.20 714.60 L 854.80 717.30 L 852.90 719.70 L 850.50 721.60 L 847.90 723.10 L 845.00 724.00 L 841.90 724.30 L 240.60 724.30 L 237.80 724.00 L 235.20 723.30 L 232.80 722.10 L 230.60 720.50 L 228.80 718.70 L 227.30 716.50 L 226.10 714.10 L 225.50 711.50 L 225.20 708.70 L 225.20 294.90 L 225.50 291.90 L 226.30 289.00 L 227.70 286.30 L 229.70 283.90 L 232.00 282.00 L 234.70 280.50 L 237.50 279.60 L 240.60 279.30 Z" fill="#1a2e35" fill-rule="nonzero" node-id="409" stroke="none" target-height="445" target-width="632.1" target-x="225.2" target-y="279.3"></path><path d="M 240.60 279.30 L 841.90 279.30 L 845.00 279.60 L 847.90 280.50 L 850.50 282.00 L 852.90 283.90 L 854.80 286.30 L 856.20 289.00 L 857.10 291.90 L 857.30 294.90 L 857.30 708.70 L 857.10 711.70 L 856.20 714.60 L 854.80 717.30 L 852.90 719.70 L 850.50 721.60 L 847.90 723.10 L 845.00 724.00 L 841.90 724.30 L 240.60 724.30 L 237.80 724.00 L 235.20 723.30 L 232.80 722.10 L 230.60 720.50 L 228.80 718.70 L 227.30 716.50 L 226.10 714.10 L 225.50 711.50 L 225.20 708.70 L 225.20 294.90 L 225.50 291.90 L 226.30 289.00 L 227.70 286.30 L 229.70 283.90 L 232.00 282.00 L 234.70 280.50 L 237.50 279.60 L 240.60 279.30 Z" fill="#94b8ed" fill-rule="nonzero" node-id="411" stroke="none" target-height="445" target-width="632.1" target-x="225.2" target-y="279.3"></path><path d="M 239.30 294.60 L 840.50 294.60 L 840.50 693.50 L 239.30 693.50 Z" fill="#007cff" fill-rule="nonzero" node-id="413" stroke="none" target-height="398.9" target-width="601.2" target-x="239.3" target-y="294.6"></path><g node-id="957"><path d="M 239.30 294.60 L 840.50 294.60 L 840.50 693.50 L 239.30 693.50 Z" fill="#ffffff" fill-opacity="0.9" fill-rule="nonzero" group-id="16" node-id="417" stroke="none" target-height="398.9" target-width="601.2" target-x="239.3" target-y="294.6"></path></g><path d="M 239.30 294.60 L 840.50 294.60 L 840.50 326.60 L 239.30 326.60 Z" fill="#253369" fill-rule="nonzero" node-id="420" stroke="none" target-height="32" target-width="601.2" target-x="239.3" target-y="294.6"></path><g node-id="958"><path d="M 832.50 310.60 L 832.30 312.50 L 831.60 314.10 L 830.50 315.40 L 829.10 316.50 L 827.60 317.20 L 825.70 317.40 L 823.90 317.20 L 822.30 316.50 L 820.90 315.40 L 819.80 314.00 L 819.20 312.50 L 818.90 310.60 L 819.20 308.80 L 819.80 307.20 L 820.90 305.80 L 822.30 304.70 L 823.90 304.10 L 825.70 303.80 L 827.50 304.10 L 829.10 304.70 L 830.50 305.80 L 831.60 307.30 L 832.30 308.80 L 832.50 310.60 Z" fill="#ffffff" fill-opacity="0.5" fill-rule="nonzero" group-id="17" node-id="424" stroke="none" target-height="13.600006" target-width="13.599976" target-x="818.9" target-y="303.8"></path></g><g node-id="959"><path d="M 813.20 310.60 L 812.90 312.50 L 812.30 314.10 L 811.20 315.40 L 809.80 316.50 L 808.20 317.20 L 806.40 317.40 L 804.50 317.20 L 802.90 316.50 L 801.60 315.40 L 800.50 314.10 L 799.80 312.50 L 799.60 310.60 L 799.80 308.80 L 800.50 307.20 L 801.60 305.80 L 802.90 304.70 L 804.50 304.10 L 806.40 303.80 L 808.20 304.10 L 809.80 304.70 L 811.20 305.80 L 812.30 307.20 L 812.90 308.80 L 813.20 310.60 Z" fill="#ffffff" fill-opacity="0.5" fill-rule="nonzero" group-id="18" node-id="429" stroke="none" target-height="13.600006" target-width="13.600037" target-x="799.6" target-y="303.8"></path></g><g node-id="960"><path d="M 793.80 310.60 L 793.50 312.60 L 792.70 314.40 L 791.40 315.90 L 789.60 316.90 L 787.70 317.40 L 785.70 317.30 L 783.90 316.60 L 782.20 315.40 L 781.00 313.80 L 780.40 312.00 L 780.30 310.00 L 780.80 308.00 L 781.80 306.30 L 783.30 305.00 L 785.00 304.10 L 787.10 303.80 L 788.90 304.10 L 790.50 304.70 L 791.90 305.80 L 792.90 307.20 L 793.60 308.80 L 793.80 310.60 Z" fill="#ffffff" fill-opacity="0.5" fill-rule="nonzero" group-id="19" node-id="434" stroke="none" target-height="13.600006" target-width="13.5" target-x="780.3" target-y="303.8"></path></g><path d="M 350.80 560.20 L 349.00 563.30 L 347.70 566.50 L 346.80 569.90 L 341.40 570.40 L 341.40 580.90 L 346.80 581.40 L 347.70 584.80 L 349.00 588.00 L 350.80 591.00 L 347.30 595.20 L 354.70 602.60 L 358.90 599.10 L 361.90 600.90 L 365.10 602.20 L 368.50 603.10 L 369.00 608.50 L 379.50 608.50 L 380.00 603.10 L 383.40 602.20 L 386.60 600.90 L 389.70 599.10 L 393.80 602.60 L 401.20 595.20 L 397.80 591.00 L 399.50 587.90 L 400.80 584.70 L 401.80 581.30 L 407.10 580.80 L 407.10 570.40 L 401.80 569.90 L 400.80 566.50 L 399.50 563.30 L 397.80 560.20 L 401.20 556.10 L 393.80 548.70 L 389.70 552.10 L 386.60 550.40 L 383.40 549.10 L 380.00 548.10 L 379.50 542.70 L 369.00 542.70 L 368.50 548.10 L 365.10 549.10 L 361.90 550.40 L 358.80 552.10 L 354.70 548.70 L 347.30 556.10 Z M 383.90 566.00 L 385.50 567.90 L 386.60 570.00 L 387.40 572.20 L 387.80 574.50 L 387.40 579.10 L 386.60 581.30 L 385.50 583.30 L 383.90 585.20 L 382.00 586.80 L 379.90 588.00 L 377.70 588.80 L 373.10 589.20 L 370.80 588.80 L 368.60 588.00 L 366.60 586.80 L 364.70 585.20 L 363.10 583.30 L 361.90 581.30 L 361.10 579.10 L 360.70 574.50 L 361.90 570.00 L 363.10 567.90 L 364.70 566.00 L 366.70 564.30 L 369.10 563.10 L 371.60 562.30 L 374.30 562.00 L 376.90 562.30 L 379.50 563.10 L 381.80 564.30 L 383.90 566.00 Z" fill="#007cff" fill-rule="nonzero" node-id="437" stroke="none" target-height="65.79999" target-width="65.70001" target-x="341.4" target-y="542.7"></path><g node-id="961"><path d="M 350.80 560.20 L 349.00 563.30 L 347.70 566.50 L 346.80 569.90 L 341.40 570.40 L 341.40 580.90 L 346.80 581.40 L 347.70 584.80 L 349.00 588.00 L 350.80 591.00 L 347.30 595.20 L 354.70 602.60 L 358.90 599.10 L 361.90 600.90 L 365.10 602.20 L 368.50 603.10 L 369.00 608.50 L 379.50 608.50 L 380.00 603.10 L 383.40 602.20 L 386.60 600.90 L 389.70 599.10 L 393.80 602.60 L 401.20 595.20 L 397.80 591.00 L 399.50 587.90 L 400.80 584.70 L 401.80 581.30 L 407.10 580.80 L 407.10 570.40 L 401.80 569.90 L 400.80 566.50 L 399.50 563.30 L 397.80 560.20 L 401.20 556.10 L 393.80 548.70 L 389.70 552.10 L 386.60 550.40 L 383.40 549.10 L 380.00 548.10 L 379.50 542.70 L 369.00 542.70 L 368.50 548.10 L 365.10 549.10 L 361.90 550.40 L 358.80 552.10 L 354.70 548.70 L 347.30 556.10 Z M 383.90 566.00 L 385.50 567.90 L 386.60 570.00 L 387.40 572.20 L 387.80 574.50 L 387.40 579.10 L 386.60 581.30 L 385.50 583.30 L 383.90 585.20 L 382.00 586.80 L 379.90 588.00 L 377.70 588.80 L 373.10 589.20 L 370.80 588.80 L 368.60 588.00 L 366.60 586.80 L 364.70 585.20 L 363.10 583.30 L 361.90 581.30 L 361.10 579.10 L 360.70 574.50 L 361.90 570.00 L 363.10 567.90 L 364.70 566.00 L 366.70 564.30 L 369.10 563.10 L 371.60 562.30 L 374.30 562.00 L 376.90 562.30 L 379.50 563.10 L 381.80 564.30 L 383.90 566.00 Z" fill="#ffffff" fill-opacity="0.4" fill-rule="nonzero" group-id="20" node-id="441" stroke="none" target-height="65.79999" target-width="65.70001" target-x="341.4" target-y="542.7"></path></g><path d="M 659.10 432.40 L 657.50 435.30 L 656.30 438.20 L 655.40 441.40 L 650.40 441.90 L 650.40 451.50 L 655.40 452.00 L 656.30 455.10 L 657.50 458.10 L 659.10 460.90 L 655.90 464.80 L 662.70 471.60 L 666.60 468.40 L 669.40 470.00 L 672.40 471.30 L 675.50 472.10 L 676.00 477.10 L 685.70 477.10 L 686.20 472.10 L 689.30 471.30 L 692.30 470.00 L 695.10 468.40 L 699.00 471.60 L 705.80 464.80 L 702.60 460.90 L 704.20 458.10 L 705.40 455.10 L 706.30 452.00 L 711.30 451.50 L 711.30 441.90 L 706.30 441.40 L 705.40 438.20 L 704.20 435.30 L 702.60 432.40 L 705.80 428.60 L 699.00 421.70 L 695.10 424.90 L 692.30 423.30 L 689.30 422.10 L 686.20 421.20 L 685.70 416.20 L 676.00 416.20 L 675.50 421.20 L 672.40 422.10 L 669.40 423.30 L 666.60 424.90 L 662.70 421.70 L 655.90 428.60 Z M 689.80 437.80 L 691.40 439.80 L 692.50 441.90 L 693.20 444.20 L 693.40 446.70 L 693.20 449.10 L 692.50 451.50 L 691.30 453.70 L 689.70 455.60 L 687.80 457.20 L 685.70 458.30 L 683.40 459.00 L 680.90 459.30 L 678.30 459.00 L 676.00 458.30 L 673.90 457.20 L 672.00 455.60 L 670.40 453.70 L 669.20 451.50 L 668.50 449.10 L 668.30 446.70 L 668.50 444.20 L 669.20 441.90 L 670.30 439.80 L 672.00 437.80 L 675.60 435.20 L 679.80 434.10 L 684.00 434.50 L 686.10 435.20 L 689.80 437.80 Z" fill="#007cff" fill-rule="nonzero" node-id="444" stroke="none" target-height="60.899994" target-width="60.899963" target-x="650.4" target-y="416.2"></path><g node-id="962"><path d="M 659.10 432.40 L 657.50 435.30 L 656.30 438.20 L 655.40 441.40 L 650.40 441.90 L 650.40 451.50 L 655.40 452.00 L 656.30 455.10 L 657.50 458.10 L 659.10 460.90 L 655.90 464.80 L 662.70 471.60 L 666.60 468.40 L 669.40 470.00 L 672.40 471.30 L 675.50 472.10 L 676.00 477.10 L 685.70 477.10 L 686.20 472.10 L 689.30 471.30 L 692.30 470.00 L 695.10 468.40 L 699.00 471.60 L 705.80 464.80 L 702.60 460.90 L 704.20 458.10 L 705.40 455.10 L 706.30 452.00 L 711.30 451.50 L 711.30 441.90 L 706.30 441.40 L 705.40 438.20 L 704.20 435.30 L 702.60 432.40 L 705.80 428.60 L 699.00 421.70 L 695.10 424.90 L 692.30 423.30 L 689.30 422.10 L 686.20 421.20 L 685.70 416.20 L 676.00 416.20 L 675.50 421.20 L 672.40 422.10 L 669.40 423.30 L 666.60 424.90 L 662.70 421.70 L 655.90 428.60 Z M 689.80 437.80 L 691.40 439.80 L 692.50 441.90 L 693.20 444.20 L 693.40 446.70 L 693.20 449.10 L 692.50 451.50 L 691.30 453.70 L 689.70 455.60 L 687.80 457.20 L 685.70 458.30 L 683.40 459.00 L 680.90 459.30 L 678.30 459.00 L 676.00 458.30 L 673.90 457.20 L 672.00 455.60 L 670.40 453.70 L 669.20 451.50 L 668.50 449.10 L 668.30 446.70 L 668.50 444.20 L 669.20 441.90 L 670.30 439.80 L 672.00 437.80 L 675.60 435.20 L 679.80 434.10 L 684.00 434.50 L 686.10 435.20 L 689.80 437.80 Z" fill="#ffffff" fill-opacity="0.4" fill-rule="nonzero" group-id="21" node-id="448" stroke="none" target-height="60.899994" target-width="60.899963" target-x="650.4" target-y="416.2"></path></g><path d="M 647.10 378.90 L 645.70 381.70 L 644.70 384.70 L 641.50 385.00 L 641.50 391.20 L 644.70 391.50 L 645.60 394.50 L 647.10 397.30 L 645.10 399.80 L 649.50 404.20 L 652.00 402.20 L 654.70 403.60 L 657.80 404.60 L 658.10 407.80 L 664.30 407.80 L 664.60 404.60 L 667.60 403.60 L 670.40 402.20 L 672.90 404.20 L 677.30 399.80 L 675.20 397.30 L 676.70 394.50 L 677.60 391.50 L 680.90 391.20 L 680.90 385.00 L 677.60 384.70 L 676.70 381.70 L 675.20 378.90 L 677.30 376.40 L 672.90 372.00 L 670.40 374.10 L 667.60 372.60 L 664.60 371.70 L 664.30 368.50 L 658.10 368.50 L 657.80 371.70 L 654.80 372.60 L 652.00 374.00 L 649.50 372.00 L 645.10 376.40 Z M 666.90 382.40 L 668.70 385.00 L 669.30 388.10 L 668.70 391.20 L 667.90 392.70 L 665.70 394.90 L 662.80 396.10 L 659.50 396.10 L 656.70 394.90 L 654.40 392.70 L 653.20 389.60 L 653.00 388.10 L 653.60 385.00 L 655.40 382.40 L 657.20 381.00 L 659.10 380.20 L 661.20 380.00 L 663.20 380.20 L 665.20 381.00 L 666.90 382.40 Z" fill="#007cff" fill-rule="nonzero" node-id="451" stroke="none" target-height="39.299988" target-width="39.400024" target-x="641.5" target-y="368.5"></path><g node-id="963"><path d="M 647.10 378.90 L 645.70 381.70 L 644.70 384.70 L 641.50 385.00 L 641.50 391.20 L 644.70 391.50 L 645.60 394.50 L 647.10 397.30 L 645.10 399.80 L 649.50 404.20 L 652.00 402.20 L 654.70 403.60 L 657.80 404.60 L 658.10 407.80 L 664.30 407.80 L 664.60 404.60 L 667.60 403.60 L 670.40 402.20 L 672.90 404.20 L 677.30 399.80 L 675.20 397.30 L 676.70 394.50 L 677.60 391.50 L 680.90 391.20 L 680.90 385.00 L 677.60 384.70 L 676.70 381.70 L 675.20 378.90 L 677.30 376.40 L 672.90 372.00 L 670.40 374.10 L 667.60 372.60 L 664.60 371.70 L 664.30 368.50 L 658.10 368.50 L 657.80 371.70 L 654.80 372.60 L 652.00 374.00 L 649.50 372.00 L 645.10 376.40 Z M 666.90 382.40 L 668.70 385.00 L 669.30 388.10 L 668.70 391.20 L 667.90 392.70 L 665.70 394.90 L 662.80 396.10 L 659.50 396.10 L 656.70 394.90 L 654.40 392.70 L 653.20 389.60 L 653.00 388.10 L 653.60 385.00 L 655.40 382.40 L 657.20 381.00 L 659.10 380.20 L 661.20 380.00 L 663.20 380.20 L 665.20 381.00 L 666.90 382.40 Z" fill="#ffffff" fill-opacity="0.7" fill-rule="nonzero" group-id="22" node-id="455" stroke="none" target-height="39.299988" target-width="39.400024" target-x="641.5" target-y="368.5"></path></g><path d="M 385.60 622.90 L 384.10 625.70 L 383.20 628.70 L 380.00 629.00 L 380.00 635.30 L 383.20 635.60 L 384.10 638.60 L 385.60 641.30 L 383.50 643.80 L 388.00 648.20 L 390.50 646.20 L 393.20 647.70 L 396.20 648.60 L 396.50 651.80 L 402.80 651.80 L 403.10 648.60 L 406.10 647.70 L 408.90 646.20 L 411.40 648.20 L 415.80 643.80 L 413.70 641.30 L 415.20 638.60 L 416.10 635.60 L 419.30 635.30 L 419.30 629.00 L 416.10 628.70 L 415.20 625.70 L 413.70 622.90 L 415.80 620.40 L 411.40 616.00 L 408.90 618.10 L 406.10 616.60 L 403.10 615.70 L 402.80 612.50 L 396.50 612.50 L 396.20 615.70 L 393.20 616.60 L 390.50 618.10 L 388.00 616.00 L 383.60 620.40 Z M 405.40 626.40 L 407.20 629.00 L 407.80 632.10 L 407.20 635.30 L 406.40 636.70 L 404.20 638.90 L 401.30 640.10 L 398.00 640.10 L 395.10 638.90 L 392.90 636.70 L 391.70 633.70 L 391.50 632.10 L 392.10 629.00 L 393.90 626.40 L 395.70 625.10 L 397.60 624.30 L 399.70 624.00 L 401.70 624.30 L 403.70 625.10 L 405.40 626.40 Z" fill="#007cff" fill-rule="nonzero" node-id="458" stroke="none" target-height="39.299988" target-width="39.299988" target-x="380" target-y="612.5"></path><g node-id="964"><path d="M 385.60 622.90 L 384.10 625.70 L 383.20 628.70 L 380.00 629.00 L 380.00 635.30 L 383.20 635.60 L 384.10 638.60 L 385.60 641.30 L 383.50 643.80 L 388.00 648.20 L 390.50 646.20 L 393.20 647.70 L 396.20 648.60 L 396.50 651.80 L 402.80 651.80 L 403.10 648.60 L 406.10 647.70 L 408.90 646.20 L 411.40 648.20 L 415.80 643.80 L 413.70 641.30 L 415.20 638.60 L 416.10 635.60 L 419.30 635.30 L 419.30 629.00 L 416.10 628.70 L 415.20 625.70 L 413.70 622.90 L 415.80 620.40 L 411.40 616.00 L 408.90 618.10 L 406.10 616.60 L 403.10 615.70 L 402.80 612.50 L 396.50 612.50 L 396.20 615.70 L 393.20 616.60 L 390.50 618.10 L 388.00 616.00 L 383.60 620.40 Z M 405.40 626.40 L 407.20 629.00 L 407.80 632.10 L 407.20 635.30 L 406.40 636.70 L 404.20 638.90 L 401.30 640.10 L 398.00 640.10 L 395.10 638.90 L 392.90 636.70 L 391.70 633.70 L 391.50 632.10 L 392.10 629.00 L 393.90 626.40 L 395.70 625.10 L 397.60 624.30 L 399.70 624.00 L 401.70 624.30 L 403.70 625.10 L 405.40 626.40 Z" fill="#ffffff" fill-opacity="0.7" fill-rule="nonzero" group-id="23" node-id="462" stroke="none" target-height="39.299988" target-width="39.299988" target-x="380" target-y="612.5"></path></g><path d="M 428.70 442.50 L 424.70 449.00 L 421.20 455.60 L 418.10 462.50 L 415.40 469.60 L 413.20 476.80 L 411.40 484.20 L 388.10 486.40 L 388.10 531.50 L 411.40 533.70 L 413.20 541.10 L 415.40 548.30 L 418.10 555.40 L 421.20 562.30 L 424.70 569.00 L 428.70 575.50 L 413.80 593.50 L 445.70 625.40 L 463.70 610.50 L 470.20 614.50 L 476.80 618.00 L 483.70 621.10 L 490.80 623.70 L 498.00 626.00 L 505.40 627.70 L 507.60 651.00 L 552.70 651.00 L 554.90 627.70 L 562.30 626.00 L 569.50 623.70 L 576.60 621.10 L 583.50 618.00 L 590.20 614.50 L 596.70 610.50 L 614.70 625.40 L 646.60 593.50 L 631.70 575.50 L 635.60 569.00 L 639.20 562.30 L 642.30 555.40 L 644.90 548.30 L 647.10 541.10 L 648.90 533.70 L 672.20 531.50 L 672.20 486.40 L 648.90 484.20 L 647.10 476.80 L 644.90 469.60 L 642.30 462.50 L 639.20 455.60 L 635.60 449.00 L 631.70 442.50 L 646.60 424.50 L 614.60 392.60 L 596.60 407.50 L 590.10 403.50 L 583.50 400.00 L 576.60 396.90 L 569.50 394.20 L 562.30 392.00 L 554.90 390.30 L 552.70 367.00 L 507.60 367.00 L 505.40 390.30 L 498.00 392.10 L 490.80 394.30 L 483.70 396.90 L 476.80 400.00 L 470.10 403.60 L 463.70 407.50 L 445.70 392.60 L 413.80 424.60 Z M 582.00 457.20 L 586.10 461.60 L 589.80 466.30 L 593.00 471.10 L 595.70 476.20 L 598.10 481.40 L 600.00 486.80 L 601.50 492.20 L 602.60 497.80 L 603.20 503.40 L 603.50 509.00 L 603.20 514.60 L 602.60 520.20 L 601.50 525.70 L 600.00 531.20 L 598.10 536.50 L 595.70 541.80 L 593.00 546.80 L 589.80 551.60 L 586.10 556.30 L 582.00 560.80 L 577.50 564.90 L 572.90 568.60 L 568.00 571.80 L 563.00 574.50 L 557.70 576.90 L 552.40 578.80 L 546.90 580.30 L 541.40 581.40 L 535.80 582.00 L 530.20 582.30 L 524.60 582.00 L 519.00 581.40 L 513.40 580.30 L 508.00 578.80 L 502.60 576.90 L 497.40 574.50 L 492.30 571.80 L 487.50 568.60 L 482.80 564.90 L 478.40 560.80 L 474.20 556.30 L 470.60 551.60 L 467.40 546.80 L 464.60 541.80 L 462.30 536.50 L 460.30 531.20 L 458.80 525.70 L 457.80 520.20 L 457.10 514.60 L 456.90 509.00 L 457.10 503.40 L 457.80 497.80 L 458.80 492.20 L 460.30 486.80 L 462.30 481.40 L 464.60 476.20 L 467.40 471.10 L 470.60 466.30 L 474.20 461.60 L 478.40 457.20 L 482.80 453.00 L 487.50 449.40 L 492.30 446.20 L 497.40 443.40 L 502.60 441.10 L 508.00 439.10 L 513.40 437.60 L 519.00 436.60 L 524.60 435.90 L 530.20 435.70 L 535.80 435.90 L 541.40 436.60 L 546.90 437.60 L 552.40 439.10 L 557.70 441.10 L 563.00 443.40 L 568.00 446.20 L 572.90 449.40 L 577.50 453.00 L 582.00 457.20 Z" fill="#acc6e5" fill-rule="nonzero" node-id="465" stroke="none" target-height="284" target-width="284.1" target-x="388.1" target-y="367"></path><path d="M 508.60 515.40 L 492.30 515.40 L 489.20 522.90 L 480.90 522.90 L 496.50 487.90 L 504.50 487.90 L 520.20 522.90 L 511.70 522.90 Z M 506.00 509.30 L 500.40 495.90 L 494.90 509.30 Z" fill="#acc6e5" fill-rule="nonzero" node-id="467" stroke="none" target-height="35.00003" target-width="39.30002" target-x="480.9" target-y="487.9"></path><path d="M 547.10 489.40 L 549.20 490.60 L 550.90 492.00 L 552.40 493.80 L 553.40 496.00 L 554.00 498.30 L 554.20 500.60 L 554.00 502.90 L 553.40 505.20 L 552.40 507.30 L 550.90 509.20 L 549.20 510.60 L 547.10 511.70 L 544.50 512.60 L 541.80 513.10 L 532.00 513.30 L 532.00 522.90 L 523.90 522.90 L 523.90 487.90 L 541.80 488.00 L 547.10 489.40 Z M 544.10 505.10 L 545.10 503.80 L 545.80 502.30 L 546.00 500.60 L 545.80 498.90 L 545.10 497.40 L 544.10 496.10 L 542.40 495.10 L 540.50 494.60 L 538.60 494.50 L 532.00 494.50 L 532.00 506.70 L 540.60 506.60 L 542.40 506.00 L 544.10 505.10 Z" fill="#acc6e5" fill-rule="nonzero" node-id="469" stroke="none" target-height="35.00003" target-width="30.299988" target-x="523.9" target-y="487.9"></path><path d="M 560.00 487.90 L 568.10 487.90 L 568.10 522.90 L 560.00 522.90 Z" fill="#acc6e5" fill-rule="nonzero" node-id="471" stroke="none" target-height="35.00003" target-width="8.099976" target-x="560" target-y="487.9"></path><path d="M 463.70 518.30 L 463.00 518.00 L 462.70 517.40 L 462.30 510.70 L 462.50 504.20 L 463.20 497.80 L 464.50 491.50 L 466.40 485.50 L 468.80 479.60 L 471.70 474.00 L 475.10 468.60 L 479.50 463.00 L 480.60 463.10 L 480.90 464.30 L 476.70 469.70 L 473.30 474.90 L 470.50 480.40 L 468.20 486.10 L 466.40 492.00 L 465.10 498.10 L 464.30 504.40 L 464.20 510.70 L 464.50 517.20 L 464.30 517.90 L 463.70 518.20 Z" fill="#acc6e5" fill-rule="nonzero" node-id="473" stroke="none" target-height="55.299988" target-width="18.600006" target-x="462.3" target-y="463"></path><path d="M 466.90 533.40 L 466.00 532.70 L 464.00 524.60 L 463.90 524.00 L 464.80 523.10 L 465.80 523.60 L 467.80 532.20 L 467.70 532.90 L 466.90 533.40 Z" fill="#acc6e5" fill-rule="nonzero" node-id="475" stroke="none" target-height="10.300049" target-width="3.899994" target-x="463.9" target-y="523.1"></path><path d="M 374.30 505.30 L 292.50 505.30 L 292.00 504.80 L 292.00 409.00 L 292.50 408.50 L 293.00 409.00 L 293.00 504.30 L 374.30 504.30 L 374.80 504.80 L 374.30 505.30 Z" fill="#007cff" fill-rule="nonzero" node-id="477" stroke="none" target-height="96.79999" target-width="82.79999" target-x="292" target-y="408.5"></path><path d="M 297.40 409.00 L 297.20 410.40 L 295.90 412.50 L 293.80 413.70 L 292.50 413.90 L 290.00 413.30 L 288.20 411.50 L 287.70 410.40 L 287.60 409.00 L 288.20 406.50 L 290.00 404.80 L 292.50 404.10 L 293.80 404.30 L 295.90 405.60 L 297.20 407.70 L 297.40 409.00 Z" fill="#007cff" fill-rule="nonzero" node-id="479" stroke="none" target-height="9.799988" target-width="9.799988" target-x="287.6" target-y="404.1"></path><path d="M 796.60 580.50 L 796.40 581.80 L 795.10 584.00 L 794.10 584.80 L 791.70 585.40 L 789.20 584.80 L 788.20 584.00 L 786.90 581.80 L 786.90 579.30 L 788.20 577.10 L 789.20 576.30 L 791.70 575.60 L 793.00 575.80 L 795.10 577.10 L 795.90 578.10 L 796.60 580.50 Z" fill="#007cff" fill-rule="nonzero" node-id="481" stroke="none" target-height="9.800049" target-width="9.699951" target-x="786.9" target-y="575.6"></path><path d="M 792.20 618.30 L 671.40 618.30 L 671.40 565.90 L 653.90 565.90 L 653.90 564.90 L 672.40 564.90 L 672.40 617.30 L 791.20 617.30 L 791.20 579.80 L 792.20 579.80 L 792.20 618.30 Z" fill="#007cff" fill-rule="nonzero" node-id="483" stroke="none" target-height="53.399963" target-width="138.29999" target-x="653.9" target-y="564.9"></path><path d="M 735.80 632.10 L 944.20 632.10 L 944.20 832.00 L 735.80 832.00 Z" fill="#007cff" fill-rule="nonzero" node-id="485" stroke="none" target-height="199.90002" target-width="208.40002" target-x="735.8" target-y="632.1"></path><path d="M 735.80 632.10 L 944.20 632.10 L 944.20 832.00 L 735.80 832.00 Z" fill="#9c9ce5" fill-rule="nonzero" node-id="487" stroke="none" target-height="199.90002" target-width="208.40002" target-x="735.8" target-y="632.1"></path><path d="M 802.10 632.10 L 944.10 632.10 L 944.10 832.00 L 802.10 832.00 Z" fill="#b1b1f2" fill-rule="nonzero" node-id="489" stroke="none" target-height="199.90002" target-width="142" target-x="802.1" target-y="632.1"></path><path d="M 809.20 642.40 L 937.00 642.40 L 937.00 667.10 L 809.20 667.10 Z" fill="#6f66d1" fill-rule="nonzero" node-id="491" stroke="none" target-height="24.699951" target-width="127.79999" target-x="809.2" target-y="642.4"></path><path d="M 809.20 673.30 L 937.00 673.30 L 937.00 698.00 L 809.20 698.00 Z" fill="#6f66d1" fill-rule="nonzero" node-id="493" stroke="none" target-height="24.700012" target-width="127.79999" target-x="809.2" target-y="673.3"></path><path d="M 809.20 704.20 L 937.00 704.20 L 937.00 729.00 L 809.20 729.00 Z" fill="#6f66d1" fill-rule="nonzero" node-id="495" stroke="none" target-height="24.799988" target-width="127.79999" target-x="809.2" target-y="704.2"></path><path d="M 809.20 735.20 L 937.00 735.20 L 937.00 759.90 L 809.20 759.90 Z" fill="#6f66d1" fill-rule="nonzero" node-id="497" stroke="none" target-height="24.700012" target-width="127.79999" target-x="809.2" target-y="735.2"></path><path d="M 809.20 766.10 L 937.00 766.10 L 937.00 790.90 L 809.20 790.90 Z" fill="#6f66d1" fill-rule="nonzero" node-id="499" stroke="none" target-height="24.800049" target-width="127.79999" target-x="809.2" target-y="766.1"></path><path d="M 809.20 797.10 L 937.00 797.10 L 937.00 821.80 L 809.20 821.80 Z" fill="#6f66d1" fill-rule="nonzero" node-id="501" stroke="none" target-height="24.700012" target-width="127.79999" target-x="809.2" target-y="797.1"></path><path d="M 743.20 642.40 L 794.70 642.40 L 794.70 667.10 L 743.20 667.10 Z" fill="#6f66d1" fill-rule="nonzero" node-id="503" stroke="none" target-height="24.699951" target-width="51.5" target-x="743.2" target-y="642.4"></path><path d="M 743.20 673.30 L 794.70 673.30 L 794.70 698.00 L 743.20 698.00 Z" fill="#6f66d1" fill-rule="nonzero" node-id="505" stroke="none" target-height="24.700012" target-width="51.5" target-x="743.2" target-y="673.3"></path><path d="M 743.20 704.20 L 794.70 704.20 L 794.70 729.00 L 743.20 729.00 Z" fill="#6f66d1" fill-rule="nonzero" node-id="507" stroke="none" target-height="24.799988" target-width="51.5" target-x="743.2" target-y="704.2"></path><path d="M 743.20 735.20 L 794.70 735.20 L 794.70 759.90 L 743.20 759.90 Z" fill="#6f66d1" fill-rule="nonzero" node-id="509" stroke="none" target-height="24.700012" target-width="51.5" target-x="743.2" target-y="735.2"></path><path d="M 743.20 766.10 L 794.70 766.10 L 794.70 790.90 L 743.20 790.90 Z" fill="#6f66d1" fill-rule="nonzero" node-id="511" stroke="none" target-height="24.800049" target-width="51.5" target-x="743.2" target-y="766.1"></path><path d="M 743.20 797.10 L 794.70 797.10 L 794.70 821.80 L 743.20 821.80 Z" fill="#6f66d1" fill-rule="nonzero" node-id="513" stroke="none" target-height="24.700012" target-width="51.5" target-x="743.2" target-y="797.1"></path><g node-id="965"><path d="M 927.80 645.60 L 930.80 645.60 L 930.80 663.90 L 927.80 663.90 Z" fill="#ffffff" fill-opacity="0.3" fill-rule="nonzero" group-id="24" node-id="517" stroke="none" target-height="18.300049" target-width="3" target-x="927.8" target-y="645.6"></path></g><g node-id="966"><path d="M 922.10 645.60 L 925.00 645.60 L 925.00 663.90 L 922.10 663.90 Z" fill="#ffffff" fill-opacity="0.3" fill-rule="nonzero" group-id="25" node-id="522" stroke="none" target-height="18.300049" target-width="2.9000244" target-x="922.1" target-y="645.6"></path></g><g node-id="967"><path d="M 916.30 645.60 L 919.30 645.60 L 919.30 663.90 L 916.30 663.90 Z" fill="#ffffff" fill-opacity="0.3" fill-rule="nonzero" group-id="26" node-id="527" stroke="none" target-height="18.300049" target-width="3" target-x="916.3" target-y="645.6"></path></g><g node-id="968"><path d="M 910.60 645.60 L 913.60 645.60 L 913.60 663.90 L 910.60 663.90 Z" fill="#ffffff" fill-opacity="0.3" fill-rule="nonzero" group-id="27" node-id="532" stroke="none" target-height="18.300049" target-width="3" target-x="910.6" target-y="645.6"></path></g><g node-id="969"><path d="M 904.80 645.60 L 907.80 645.60 L 907.80 663.90 L 904.80 663.90 Z" fill="#ffffff" fill-opacity="0.3" fill-rule="nonzero" group-id="28" node-id="537" stroke="none" target-height="18.300049" target-width="3" target-x="904.8" target-y="645.6"></path></g><g node-id="970"><path d="M 927.80 676.50 L 930.80 676.50 L 930.80 694.80 L 927.80 694.80 Z" fill="#ffffff" fill-opacity="0.3" fill-rule="nonzero" group-id="29" node-id="542" stroke="none" target-height="18.299988" target-width="3" target-x="927.8" target-y="676.5"></path></g><g node-id="971"><path d="M 922.10 676.50 L 925.00 676.50 L 925.00 694.80 L 922.10 694.80 Z" fill="#ffffff" fill-opacity="0.3" fill-rule="nonzero" group-id="30" node-id="547" stroke="none" target-height="18.299988" target-width="2.9000244" target-x="922.1" target-y="676.5"></path></g><g node-id="972"><path d="M 916.30 676.50 L 919.30 676.50 L 919.30 694.80 L 916.30 694.80 Z" fill="#ffffff" fill-opacity="0.3" fill-rule="nonzero" group-id="31" node-id="552" stroke="none" target-height="18.299988" target-width="3" target-x="916.3" target-y="676.5"></path></g><g node-id="973"><path d="M 910.60 676.50 L 913.60 676.50 L 913.60 694.80 L 910.60 694.80 Z" fill="#ffffff" fill-opacity="0.3" fill-rule="nonzero" group-id="32" node-id="557" stroke="none" target-height="18.299988" target-width="3" target-x="910.6" target-y="676.5"></path></g><g node-id="974"><path d="M 904.80 676.50 L 907.80 676.50 L 907.80 694.80 L 904.80 694.80 Z" fill="#ffffff" fill-opacity="0.3" fill-rule="nonzero" group-id="33" node-id="562" stroke="none" target-height="18.299988" target-width="3" target-x="904.8" target-y="676.5"></path></g><g node-id="975"><path d="M 927.80 707.50 L 930.80 707.50 L 930.80 725.80 L 927.80 725.80 Z" fill="#ffffff" fill-opacity="0.3" fill-rule="nonzero" group-id="34" node-id="567" stroke="none" target-height="18.299988" target-width="3" target-x="927.8" target-y="707.5"></path></g><g node-id="976"><path d="M 922.10 707.50 L 925.00 707.50 L 925.00 725.80 L 922.10 725.80 Z" fill="#ffffff" fill-opacity="0.3" fill-rule="nonzero" group-id="35" node-id="572" stroke="none" target-height="18.299988" target-width="2.9000244" target-x="922.1" target-y="707.5"></path></g><g node-id="977"><path d="M 916.30 707.50 L 919.30 707.50 L 919.30 725.80 L 916.30 725.80 Z" fill="#ffffff" fill-opacity="0.3" fill-rule="nonzero" group-id="36" node-id="577" stroke="none" target-height="18.299988" target-width="3" target-x="916.3" target-y="707.5"></path></g><g node-id="978"><path d="M 910.60 707.50 L 913.60 707.50 L 913.60 725.80 L 910.60 725.80 Z" fill="#ffffff" fill-opacity="0.3" fill-rule="nonzero" group-id="37" node-id="582" stroke="none" target-height="18.299988" target-width="3" target-x="910.6" target-y="707.5"></path></g><g node-id="979"><path d="M 904.80 707.50 L 907.80 707.50 L 907.80 725.80 L 904.80 725.80 Z" fill="#ffffff" fill-opacity="0.3" fill-rule="nonzero" group-id="38" node-id="587" stroke="none" target-height="18.299988" target-width="3" target-x="904.8" target-y="707.5"></path></g><g node-id="980"><path d="M 927.80 738.40 L 930.80 738.40 L 930.80 756.70 L 927.80 756.70 Z" fill="#ffffff" fill-opacity="0.3" fill-rule="nonzero" group-id="39" node-id="592" stroke="none" target-height="18.299988" target-width="3" target-x="927.8" target-y="738.4"></path></g><g node-id="981"><path d="M 922.10 738.40 L 925.00 738.40 L 925.00 756.70 L 922.10 756.70 Z" fill="#ffffff" fill-opacity="0.3" fill-rule="nonzero" group-id="40" node-id="597" stroke="none" target-height="18.299988" target-width="2.9000244" target-x="922.1" target-y="738.4"></path></g><g node-id="982"><path d="M 916.30 738.40 L 919.30 738.40 L 919.30 756.70 L 916.30 756.70 Z" fill="#ffffff" fill-opacity="0.3" fill-rule="nonzero" group-id="41" node-id="602" stroke="none" target-height="18.299988" target-width="3" target-x="916.3" target-y="738.4"></path></g><g node-id="983"><path d="M 910.60 738.40 L 913.60 738.40 L 913.60 756.70 L 910.60 756.70 Z" fill="#ffffff" fill-opacity="0.3" fill-rule="nonzero" group-id="42" node-id="607" stroke="none" target-height="18.299988" target-width="3" target-x="910.6" target-y="738.4"></path></g><g node-id="984"><path d="M 904.80 738.40 L 907.80 738.40 L 907.80 756.70 L 904.80 756.70 Z" fill="#ffffff" fill-opacity="0.3" fill-rule="nonzero" group-id="43" node-id="612" stroke="none" target-height="18.299988" target-width="3" target-x="904.8" target-y="738.4"></path></g><g node-id="985"><path d="M 927.80 769.30 L 930.80 769.30 L 930.80 787.60 L 927.80 787.60 Z" fill="#ffffff" fill-opacity="0.3" fill-rule="nonzero" group-id="44" node-id="617" stroke="none" target-height="18.299988" target-width="3" target-x="927.8" target-y="769.3"></path></g><g node-id="986"><path d="M 922.10 769.30 L 925.00 769.30 L 925.00 787.60 L 922.10 787.60 Z" fill="#ffffff" fill-opacity="0.3" fill-rule="nonzero" group-id="45" node-id="622" stroke="none" target-height="18.299988" target-width="2.9000244" target-x="922.1" target-y="769.3"></path></g><g node-id="987"><path d="M 916.30 769.30 L 919.30 769.30 L 919.30 787.60 L 916.30 787.60 Z" fill="#ffffff" fill-opacity="0.3" fill-rule="nonzero" group-id="46" node-id="627" stroke="none" target-height="18.299988" target-width="3" target-x="916.3" target-y="769.3"></path></g><g node-id="988"><path d="M 910.60 769.30 L 913.60 769.30 L 913.60 787.60 L 910.60 787.60 Z" fill="#ffffff" fill-opacity="0.3" fill-rule="nonzero" group-id="47" node-id="632" stroke="none" target-height="18.299988" target-width="3" target-x="910.6" target-y="769.3"></path></g><g node-id="989"><path d="M 904.80 769.30 L 907.80 769.30 L 907.80 787.60 L 904.80 787.60 Z" fill="#ffffff" fill-opacity="0.3" fill-rule="nonzero" group-id="48" node-id="637" stroke="none" target-height="18.299988" target-width="3" target-x="904.8" target-y="769.3"></path></g><g node-id="990"><path d="M 927.80 800.30 L 930.80 800.30 L 930.80 818.60 L 927.80 818.60 Z" fill="#ffffff" fill-opacity="0.3" fill-rule="nonzero" group-id="49" node-id="642" stroke="none" target-height="18.299988" target-width="3" target-x="927.8" target-y="800.3"></path></g><g node-id="991"><path d="M 922.10 800.30 L 925.00 800.30 L 925.00 818.60 L 922.10 818.60 Z" fill="#ffffff" fill-opacity="0.3" fill-rule="nonzero" group-id="50" node-id="647" stroke="none" target-height="18.299988" target-width="2.9000244" target-x="922.1" target-y="800.3"></path></g><g node-id="992"><path d="M 916.30 800.30 L 919.30 800.30 L 919.30 818.60 L 916.30 818.60 Z" fill="#ffffff" fill-opacity="0.3" fill-rule="nonzero" group-id="51" node-id="652" stroke="none" target-height="18.299988" target-width="3" target-x="916.3" target-y="800.3"></path></g><g node-id="993"><path d="M 910.60 800.30 L 913.60 800.30 L 913.60 818.60 L 910.60 818.60 Z" fill="#ffffff" fill-opacity="0.3" fill-rule="nonzero" group-id="52" node-id="657" stroke="none" target-height="18.299988" target-width="3" target-x="910.6" target-y="800.3"></path></g><g node-id="994"><path d="M 904.80 800.30 L 907.80 800.30 L 907.80 818.60 L 904.80 818.60 Z" fill="#ffffff" fill-opacity="0.3" fill-rule="nonzero" group-id="53" node-id="662" stroke="none" target-height="18.299988" target-width="3" target-x="904.8" target-y="800.3"></path></g><g node-id="995"><path d="M 824.10 654.70 L 823.80 655.90 L 823.20 656.80 L 822.20 657.50 L 821.10 657.70 L 819.90 657.50 L 818.90 656.80 L 818.30 655.90 L 818.10 654.70 L 818.30 653.50 L 818.90 652.60 L 819.90 651.90 L 821.10 651.70 L 822.20 651.90 L 823.20 652.60 L 823.80 653.50 L 824.10 654.70 Z" fill="#ffffff" fill-opacity="0.2" fill-rule="nonzero" group-id="54" node-id="667" stroke="none" target-height="6" target-width="6" target-x="818.1" target-y="651.7"></path></g><g node-id="996"><path d="M 843.20 654.70 L 843.00 655.90 L 842.30 656.80 L 841.40 657.50 L 840.20 657.70 L 839.00 657.50 L 838.10 656.80 L 837.40 655.90 L 837.20 654.70 L 837.40 653.50 L 838.10 652.60 L 839.00 651.90 L 840.20 651.70 L 841.40 651.90 L 842.30 652.60 L 843.00 653.50 L 843.20 654.70 Z" fill="#ffffff" fill-opacity="0.2" fill-rule="nonzero" group-id="55" node-id="672" stroke="none" target-height="6" target-width="6" target-x="837.2" target-y="651.7"></path></g><g node-id="997"><path d="M 862.40 654.70 L 862.10 655.90 L 860.50 657.50 L 859.40 657.70 L 858.20 657.50 L 857.20 656.80 L 856.60 655.90 L 856.40 654.70 L 856.60 653.50 L 857.20 652.60 L 858.20 651.90 L 859.40 651.70 L 860.50 651.90 L 861.50 652.60 L 862.10 653.50 L 862.40 654.70 Z" fill="#ffffff" fill-opacity="0.4" fill-rule="nonzero" group-id="56" node-id="677" stroke="none" target-height="6" target-width="6" target-x="856.4" target-y="651.7"></path></g><g node-id="998"><path d="M 824.10 685.70 L 823.80 686.80 L 823.20 687.80 L 822.20 688.40 L 821.10 688.70 L 819.90 688.40 L 818.90 687.80 L 818.30 686.80 L 818.10 685.70 L 818.30 684.50 L 819.90 682.90 L 821.10 682.70 L 822.20 682.90 L 823.20 683.50 L 823.80 684.50 L 824.10 685.70 Z" fill="#ffffff" fill-opacity="0.4" fill-rule="nonzero" group-id="57" node-id="682" stroke="none" target-height="6" target-width="6" target-x="818.1" target-y="682.7"></path></g><g node-id="999"><path d="M 843.20 685.70 L 843.00 686.80 L 842.30 687.80 L 841.40 688.40 L 840.20 688.70 L 839.00 688.40 L 837.40 686.80 L 837.20 685.70 L 837.40 684.50 L 838.10 683.50 L 839.00 682.90 L 840.20 682.70 L 841.40 682.90 L 842.30 683.50 L 843.00 684.50 L 843.20 685.70 Z" fill="#ffffff" fill-opacity="0.2" fill-rule="nonzero" group-id="58" node-id="687" stroke="none" target-height="6" target-width="6" target-x="837.2" target-y="682.7"></path></g><g node-id="1000"><path d="M 862.40 685.70 L 862.10 686.80 L 861.50 687.80 L 860.50 688.40 L 859.40 688.70 L 858.20 688.40 L 857.20 687.80 L 856.60 686.80 L 856.40 685.70 L 856.60 684.50 L 857.20 683.50 L 858.20 682.90 L 859.40 682.70 L 860.50 682.90 L 861.50 683.50 L 862.10 684.50 L 862.40 685.70 Z" fill="#ffffff" fill-opacity="0.4" fill-rule="nonzero" group-id="59" node-id="692" stroke="none" target-height="6" target-width="6" target-x="856.4" target-y="682.7"></path></g><g node-id="1001"><path d="M 824.10 716.60 L 823.80 717.80 L 823.20 718.70 L 822.20 719.40 L 821.10 719.60 L 819.90 719.40 L 818.90 718.70 L 818.30 717.80 L 818.10 716.60 L 818.30 715.40 L 818.90 714.50 L 819.90 713.80 L 821.10 713.60 L 822.20 713.80 L 823.20 714.50 L 823.80 715.40 L 824.10 716.60 Z" fill="#ffffff" fill-opacity="0.2" fill-rule="nonzero" group-id="60" node-id="697" stroke="none" target-height="6" target-width="6" target-x="818.1" target-y="713.6"></path></g><g node-id="1002"><path d="M 843.20 716.60 L 843.00 717.80 L 842.30 718.70 L 841.40 719.40 L 840.20 719.60 L 839.00 719.40 L 838.10 718.70 L 837.40 717.80 L 837.20 716.60 L 837.40 715.40 L 838.10 714.50 L 839.00 713.80 L 840.20 713.60 L 841.40 713.80 L 842.30 714.50 L 843.00 715.40 L 843.20 716.60 Z" fill="#ffffff" fill-opacity="0.4" fill-rule="nonzero" group-id="61" node-id="702" stroke="none" target-height="6" target-width="6" target-x="837.2" target-y="713.6"></path></g><g node-id="1003"><path d="M 862.40 716.60 L 862.10 717.80 L 861.50 718.70 L 860.50 719.40 L 859.40 719.60 L 858.20 719.40 L 857.20 718.70 L 856.60 717.80 L 856.40 716.60 L 856.60 715.40 L 857.20 714.50 L 858.20 713.80 L 859.40 713.60 L 860.50 713.80 L 861.50 714.50 L 862.10 715.40 L 862.40 716.60 Z" fill="#ffffff" fill-opacity="0.2" fill-rule="nonzero" group-id="62" node-id="707" stroke="none" target-height="6" target-width="6" target-x="856.4" target-y="713.6"></path></g><g node-id="1004"><path d="M 824.10 747.60 L 823.80 748.70 L 823.20 749.70 L 822.20 750.30 L 821.10 750.60 L 819.90 750.30 L 818.90 749.70 L 818.30 748.70 L 818.10 747.60 L 818.30 746.40 L 818.90 745.40 L 819.90 744.80 L 821.10 744.60 L 822.20 744.80 L 823.20 745.40 L 823.80 746.40 L 824.10 747.60 Z" fill="#ffffff" fill-opacity="0.4" fill-rule="nonzero" group-id="63" node-id="712" stroke="none" target-height="6" target-width="6" target-x="818.1" target-y="744.6"></path></g><g node-id="1005"><path d="M 843.20 747.60 L 843.00 748.70 L 842.30 749.70 L 841.40 750.30 L 840.20 750.60 L 839.00 750.30 L 838.10 749.70 L 837.40 748.70 L 837.20 747.60 L 837.40 746.40 L 838.10 745.40 L 839.00 744.80 L 840.20 744.60 L 841.40 744.80 L 842.30 745.40 L 843.00 746.40 L 843.20 747.60 Z" fill="#ffffff" fill-opacity="0.2" fill-rule="nonzero" group-id="64" node-id="717" stroke="none" target-height="6" target-width="6" target-x="837.2" target-y="744.6"></path></g><g node-id="1006"><path d="M 862.40 747.60 L 862.10 748.70 L 861.50 749.70 L 860.50 750.30 L 859.40 750.60 L 858.20 750.30 L 857.20 749.70 L 856.60 748.70 L 856.40 747.60 L 856.60 746.40 L 857.20 745.40 L 858.20 744.80 L 859.40 744.60 L 860.50 744.80 L 861.50 745.40 L 862.10 746.40 L 862.40 747.60 Z" fill="#ffffff" fill-opacity="0.2" fill-rule="nonzero" group-id="65" node-id="722" stroke="none" target-height="6" target-width="6" target-x="856.4" target-y="744.6"></path></g><g node-id="1007"><path d="M 824.10 778.50 L 823.80 779.70 L 823.20 780.60 L 822.20 781.30 L 821.10 781.50 L 819.90 781.30 L 818.90 780.60 L 818.30 779.70 L 818.10 778.50 L 818.30 777.30 L 818.90 776.40 L 819.90 775.70 L 821.10 775.50 L 822.20 775.70 L 823.20 776.40 L 823.80 777.30 L 824.10 778.50 Z" fill="#ffffff" fill-opacity="0.2" fill-rule="nonzero" group-id="66" node-id="727" stroke="none" target-height="6" target-width="6" target-x="818.1" target-y="775.5"></path></g><g node-id="1008"><path d="M 843.20 778.50 L 843.00 779.70 L 842.30 780.60 L 841.40 781.30 L 840.20 781.50 L 839.00 781.30 L 838.10 780.60 L 837.40 779.70 L 837.20 778.50 L 837.40 777.30 L 838.10 776.40 L 839.00 775.70 L 840.20 775.50 L 841.40 775.70 L 842.30 776.40 L 843.00 777.30 L 843.20 778.50 Z" fill="#ffffff" fill-opacity="0.4" fill-rule="nonzero" group-id="67" node-id="732" stroke="none" target-height="6" target-width="6" target-x="837.2" target-y="775.5"></path></g><g node-id="1009"><path d="M 862.40 778.50 L 862.10 779.70 L 861.50 780.60 L 860.50 781.30 L 859.40 781.50 L 858.20 781.30 L 857.20 780.60 L 856.60 779.70 L 856.40 778.50 L 856.60 777.30 L 857.20 776.40 L 858.20 775.70 L 859.40 775.50 L 860.50 775.70 L 861.50 776.40 L 862.10 777.30 L 862.40 778.50 Z" fill="#ffffff" fill-opacity="0.4" fill-rule="nonzero" group-id="68" node-id="737" stroke="none" target-height="6" target-width="6" target-x="856.4" target-y="775.5"></path></g><g node-id="1010"><path d="M 824.10 809.40 L 823.80 810.60 L 823.20 811.60 L 822.20 812.20 L 821.10 812.40 L 819.90 812.20 L 818.90 811.60 L 818.30 810.60 L 818.10 809.40 L 818.30 808.30 L 818.90 807.30 L 819.90 806.70 L 821.10 806.40 L 822.20 806.70 L 823.20 807.30 L 823.80 808.30 L 824.10 809.40 Z" fill="#ffffff" fill-opacity="0.4" fill-rule="nonzero" group-id="69" node-id="742" stroke="none" target-height="6" target-width="6" target-x="818.1" target-y="806.4"></path></g><g node-id="1011"><path d="M 843.20 809.40 L 843.00 810.60 L 842.30 811.60 L 841.40 812.20 L 840.20 812.40 L 839.00 812.20 L 838.10 811.60 L 837.40 810.60 L 837.20 809.40 L 837.40 808.30 L 838.10 807.30 L 839.00 806.70 L 840.20 806.40 L 841.40 806.70 L 842.30 807.30 L 843.00 808.30 L 843.20 809.40 Z" fill="#ffffff" fill-opacity="0.2" fill-rule="nonzero" group-id="70" node-id="747" stroke="none" target-height="6" target-width="6" target-x="837.2" target-y="806.4"></path></g><g node-id="1012"><path d="M 862.40 809.40 L 862.10 810.60 L 861.50 811.60 L 860.50 812.20 L 859.40 812.40 L 858.20 812.20 L 857.20 811.60 L 856.60 810.60 L 856.40 809.40 L 856.60 808.30 L 857.20 807.30 L 858.20 806.70 L 859.40 806.40 L 860.50 806.70 L 862.10 808.30 L 862.40 809.40 Z" fill="#ffffff" fill-opacity="0.4" fill-rule="nonzero" group-id="71" node-id="752" stroke="none" target-height="6" target-width="6" target-x="856.4" target-y="806.4"></path></g><g node-id="1013"><path d="M 735.80 632.10 L 802.10 632.10 L 802.10 832.00 L 735.80 832.00 Z" fill="#a4baf7" fill-opacity="0.5" fill-rule="nonzero" group-id="72" node-id="757" stroke="none" target-height="199.90002" target-width="66.29999" target-x="735.8" target-y="632.1"></path></g><path d="M 729.30 383.10 L 932.00 383.10 L 933.30 383.30 L 935.50 384.60 L 936.20 385.60 L 936.90 388.10 L 936.90 556.90 L 936.70 558.20 L 935.50 560.40 L 933.30 561.70 L 729.30 561.90 L 728.00 561.70 L 725.80 560.40 L 725.00 559.40 L 724.30 556.90 L 724.30 388.10 L 724.50 386.80 L 725.80 384.60 L 726.80 383.80 L 729.30 383.10 Z" fill="#007cff" fill-rule="nonzero" node-id="760" stroke="none" target-height="178.80002" target-width="212.60004" target-x="724.3" target-y="383.1"></path><g node-id="1014"><path d="M 729.30 383.10 L 932.00 383.10 L 933.30 383.30 L 935.50 384.60 L 936.20 385.60 L 936.90 388.10 L 936.90 556.90 L 936.70 558.20 L 935.50 560.40 L 933.30 561.70 L 729.30 561.90 L 728.00 561.70 L 725.80 560.40 L 725.00 559.40 L 724.30 556.90 L 724.30 388.10 L 724.50 386.80 L 725.80 384.60 L 726.80 383.80 L 729.30 383.10 Z" fill="#ffffff" fill-opacity="0.5" fill-rule="nonzero" group-id="73" node-id="764" stroke="none" target-height="178.80002" target-width="212.60004" target-x="724.3" target-y="383.1"></path></g><path d="M 729.00 383.10 L 933.60 383.30 L 934.60 383.70 L 936.30 385.40 L 936.90 387.70 L 936.90 414.30 L 724.30 414.30 L 724.50 386.50 L 725.70 384.50 L 726.70 383.70 L 729.00 383.10 Z" fill="#007cff" fill-rule="nonzero" node-id="767" stroke="none" target-height="31.199982" target-width="212.60004" target-x="724.3" target-y="383.1"></path><g node-id="1015"><path d="M 924.90 401.00 L 924.60 403.00 L 923.70 404.80 L 922.40 406.30 L 920.70 407.30 L 918.70 407.80 L 916.80 407.70 L 914.90 407.00 L 913.30 405.80 L 912.10 404.20 L 911.40 402.30 L 911.30 400.40 L 911.80 398.40 L 912.80 396.70 L 914.30 395.30 L 916.10 394.50 L 918.10 394.20 L 919.90 394.50 L 921.50 395.10 L 922.90 396.20 L 924.00 397.60 L 924.60 399.20 L 924.90 401.00 Z" fill="#ffffff" fill-opacity="0.5" fill-rule="nonzero" group-id="74" node-id="771" stroke="none" target-height="13.599976" target-width="13.600037" target-x="911.3" target-y="394.2"></path></g><g node-id="1016"><path d="M 905.60 401.00 L 905.30 403.00 L 904.40 404.80 L 903.10 406.30 L 901.40 407.30 L 899.40 407.80 L 897.40 407.70 L 895.60 407.00 L 893.90 405.80 L 892.70 404.20 L 892.10 402.30 L 892.00 400.40 L 892.50 398.40 L 893.50 396.70 L 895.00 395.30 L 896.70 394.50 L 898.80 394.20 L 900.60 394.50 L 902.20 395.10 L 903.60 396.20 L 904.60 397.60 L 905.30 399.20 L 905.60 401.00 Z" fill="#ffffff" fill-opacity="0.5" fill-rule="nonzero" group-id="75" node-id="776" stroke="none" target-height="13.599976" target-width="13.599976" target-x="892" target-y="394.2"></path></g><g node-id="1017"><path d="M 886.20 401.00 L 885.90 402.80 L 885.30 404.40 L 884.20 405.80 L 882.80 406.90 L 881.30 407.50 L 879.40 407.80 L 877.60 407.50 L 876.00 406.90 L 874.60 405.80 L 873.50 404.40 L 872.90 402.80 L 872.60 401.00 L 872.90 399.20 L 873.50 397.60 L 874.60 396.20 L 876.00 395.10 L 877.60 394.50 L 879.40 394.20 L 881.30 394.50 L 882.80 395.10 L 884.20 396.20 L 885.30 397.60 L 885.90 399.20 L 886.20 401.00 Z" fill="#ffffff" fill-opacity="0.5" fill-rule="nonzero" group-id="76" node-id="781" stroke="none" target-height="13.599976" target-width="13.600037" target-x="872.6" target-y="394.2"></path></g><g node-id="1018"><path d="M 772.20 440.30 L 881.20 440.30 L 881.20 446.70 L 772.20 446.70 Z" fill="#ffffff" fill-opacity="0.6" fill-rule="nonzero" group-id="77" node-id="786" stroke="none" target-height="6.4000244" target-width="109" target-x="772.2" target-y="440.3"></path></g><g node-id="1019"><path d="M 773.90 454.10 L 851.90 454.10 L 851.90 460.40 L 773.90 460.40 Z" fill="#1a2e35" fill-opacity="0.6" fill-rule="nonzero" group-id="78" node-id="791" stroke="none" target-height="6.299988" target-width="78" target-x="773.9" target-y="454.1"></path></g><path d="M 889.20 440.30 L 910.70 440.30 L 910.70 446.70 L 889.20 446.70 Z" fill="#007cff" fill-rule="nonzero" node-id="794" stroke="none" target-height="6.4000244" target-width="21.5" target-x="889.2" target-y="440.3"></path><path d="M 743.10 440.30 L 764.60 440.30 L 764.60 446.70 L 743.10 446.70 Z" fill="#007cff" fill-rule="nonzero" node-id="796" stroke="none" target-height="6.4000244" target-width="21.5" target-x="743.1" target-y="440.3"></path><path d="M 772.20 469.30 L 881.20 469.30 L 881.20 475.70 L 772.20 475.70 Z" fill="#007cff" fill-rule="nonzero" node-id="798" stroke="none" target-height="6.4000244" target-width="109" target-x="772.2" target-y="469.3"></path><g node-id="1020"><path d="M 889.20 469.30 L 910.70 469.30 L 910.70 475.70 L 889.20 475.70 Z" fill="#ffffff" fill-opacity="0.6" fill-rule="nonzero" group-id="79" node-id="802" stroke="none" target-height="6.4000244" target-width="21.5" target-x="889.2" target-y="469.3"></path></g><path d="M 743.10 469.30 L 764.60 469.30 L 764.60 475.70 L 743.10 475.70 Z" fill="#007cff" fill-rule="nonzero" node-id="805" stroke="none" target-height="6.4000244" target-width="21.5" target-x="743.1" target-y="469.3"></path><path d="M 772.20 529.70 L 881.20 529.70 L 881.20 536.10 L 772.20 536.10 Z" fill="#007cff" fill-rule="nonzero" node-id="807" stroke="none" target-height="6.3999634" target-width="109" target-x="772.2" target-y="529.7"></path><g node-id="1021"><path d="M 889.20 529.70 L 910.70 529.70 L 910.70 536.10 L 889.20 536.10 Z" fill="#ffffff" fill-opacity="0.6" fill-rule="nonzero" group-id="80" node-id="811" stroke="none" target-height="6.3999634" target-width="21.5" target-x="889.2" target-y="529.7"></path></g><path d="M 772.20 484.60 L 881.20 484.60 L 881.20 490.90 L 772.20 490.90 Z" fill="#007cff" fill-rule="nonzero" node-id="814" stroke="none" target-height="6.299988" target-width="109" target-x="772.2" target-y="484.6"></path><g node-id="1022"><path d="M 889.20 484.60 L 910.70 484.60 L 910.70 490.90 L 889.20 490.90 Z" fill="#1a2e35" fill-opacity="0.6" fill-rule="nonzero" group-id="81" node-id="818" stroke="none" target-height="6.299988" target-width="21.5" target-x="889.2" target-y="484.6"></path></g><g node-id="1023"><path d="M 743.10 484.60 L 764.60 484.60 L 764.60 490.90 L 743.10 490.90 Z" fill="#1a2e35" fill-opacity="0.6" fill-rule="nonzero" group-id="82" node-id="823" stroke="none" target-height="6.299988" target-width="21.5" target-x="743.1" target-y="484.6"></path></g><path d="M 860.40 454.30 L 912.20 454.30 L 912.20 460.70 L 860.40 460.70 Z" fill="#007cff" fill-rule="nonzero" node-id="826" stroke="none" target-height="6.4000244" target-width="51.799988" target-x="860.4" target-y="454.3"></path><g node-id="1024"><path d="M 772.20 497.90 L 850.20 497.90 L 850.20 504.30 L 772.20 504.30 Z" fill="#ffffff" fill-opacity="0.6" fill-rule="nonzero" group-id="83" node-id="830" stroke="none" target-height="6.399994" target-width="78" target-x="772.2" target-y="497.9"></path></g><path d="M 858.70 498.20 L 910.50 498.20 L 910.50 504.50 L 858.70 504.50 Z" fill="#007cff" fill-rule="nonzero" node-id="833" stroke="none" target-height="6.299988" target-width="51.799988" target-x="858.7" target-y="498.2"></path><g node-id="1025"><path d="M 772.20 511.70 L 811.20 511.70 L 811.20 518.10 L 772.20 518.10 Z" fill="#1a2e35" fill-opacity="0.6" fill-rule="nonzero" group-id="84" node-id="837" stroke="none" target-height="6.3999634" target-width="39" target-x="772.2" target-y="511.7"></path></g><path d="M 152.70 200.20 L 355.40 200.20 L 356.60 200.30 L 358.80 201.60 L 359.60 202.60 L 360.30 205.10 L 360.30 374.00 L 359.60 376.40 L 358.80 377.50 L 357.80 378.30 L 355.40 378.90 L 152.70 378.90 L 151.40 378.70 L 149.20 377.50 L 148.40 376.40 L 147.70 374.00 L 147.70 205.10 L 148.40 202.60 L 149.20 201.60 L 150.20 200.80 L 152.70 200.20 Z" fill="#ebf3ff" fill-rule="nonzero" node-id="840" stroke="none" target-height="178.7" target-width="212.59999" target-x="147.7" target-y="200.2"></path><path d="M 360.30 231.30 L 147.70 231.30 L 147.90 203.60 L 149.10 201.50 L 150.00 200.80 L 152.30 200.20 L 355.70 200.20 L 357.00 200.30 L 359.00 201.50 L 360.10 203.50 L 360.30 204.70 Z" fill="#5fb7ff" fill-rule="nonzero" node-id="842" stroke="none" target-height="31.100006" target-width="212.59999" target-x="147.7" target-y="200.2"></path><g node-id="1026"><path d="M 348.30 218.00 L 348.00 220.00 L 347.10 221.80 L 345.80 223.20 L 344.10 224.30 L 342.10 224.80 L 340.10 224.70 L 338.30 224.00 L 336.70 222.80 L 335.40 221.20 L 334.80 219.30 L 334.70 217.40 L 335.20 215.40 L 336.20 213.60 L 337.70 212.30 L 339.50 211.50 L 341.50 211.20 L 343.30 211.50 L 344.90 212.10 L 346.30 213.20 L 347.40 214.60 L 348.00 216.20 L 348.30 218.00 Z" fill="#ffffff" fill-opacity="0.5" fill-rule="nonzero" group-id="85" node-id="846" stroke="none" target-height="13.600006" target-width="13.599976" target-x="334.7" target-y="211.2"></path></g><g node-id="1027"><path d="M 328.90 218.00 L 328.60 220.00 L 327.80 221.80 L 326.50 223.20 L 324.70 224.30 L 322.80 224.80 L 320.80 224.70 L 318.90 224.00 L 317.30 222.80 L 316.10 221.20 L 315.40 219.30 L 315.40 217.40 L 315.80 215.40 L 316.90 213.60 L 318.40 212.30 L 320.10 211.50 L 322.10 211.20 L 323.90 211.40 L 325.50 212.10 L 327.00 213.20 L 328.00 214.60 L 328.70 216.20 L 328.90 218.00 Z" fill="#ffffff" fill-opacity="0.5" fill-rule="nonzero" group-id="86" node-id="851" stroke="none" target-height="13.600006" target-width="13.5" target-x="315.4" target-y="211.2"></path></g><g node-id="1028"><path d="M 309.60 218.00 L 309.30 219.80 L 308.70 221.40 L 307.60 222.80 L 306.20 223.90 L 304.60 224.50 L 302.80 224.80 L 300.90 224.50 L 299.40 223.90 L 298.00 222.80 L 296.90 221.40 L 296.30 219.80 L 296.00 218.00 L 296.30 216.10 L 296.90 214.60 L 298.00 213.20 L 299.40 212.10 L 301.00 211.50 L 302.80 211.20 L 304.60 211.40 L 306.20 212.10 L 307.60 213.20 L 308.70 214.60 L 309.40 216.20 L 309.60 218.00 Z" fill="#ffffff" fill-opacity="0.5" fill-rule="nonzero" group-id="87" node-id="856" stroke="none" target-height="13.600006" target-width="13.600006" target-x="296" target-y="211.2"></path></g><path d="M 321.00 299.80 L 316.90 295.50 L 314.50 293.70 L 311.90 292.20 L 306.40 290.10 L 303.50 289.50 L 297.80 289.50 L 295.00 290.10 L 292.40 291.10 L 289.90 292.60 L 287.70 284.80 L 284.20 278.00 L 281.20 273.90 L 277.80 270.20 L 273.90 267.00 L 269.60 264.30 L 265.10 262.20 L 260.20 260.60 L 256.50 259.80 L 248.70 259.40 L 244.70 259.70 L 240.70 260.50 L 236.90 261.60 L 229.90 264.80 L 225.70 267.70 L 221.90 271.00 L 218.60 274.80 L 215.70 278.90 L 213.40 283.30 L 211.60 288.10 L 210.10 295.70 L 210.20 303.70 L 207.00 303.10 L 200.70 303.10 L 197.70 303.70 L 194.70 304.70 L 191.90 306.10 L 189.30 308.00 L 186.80 310.40 L 184.60 313.40 L 182.30 318.40 L 181.80 320.80 L 181.70 324.30 L 182.00 327.50 L 182.90 330.50 L 183.90 333.00 L 185.90 336.80 L 186.90 338.20 L 241.50 338.50 L 241.50 318.50 L 234.50 318.50 L 233.70 318.30 L 233.20 317.60 L 233.10 316.80 L 233.50 316.10 L 250.80 298.10 L 251.80 297.60 L 252.80 298.10 L 270.10 316.10 L 270.40 316.80 L 270.30 317.60 L 269.80 318.30 L 269.10 318.50 L 262.10 318.50 L 262.10 338.60 L 320.10 338.90 L 322.00 336.40 L 323.50 333.50 L 324.80 330.10 L 326.10 323.10 L 326.30 319.40 L 326.20 315.60 L 325.00 308.60 L 323.90 305.20 L 322.60 302.30 L 321.00 299.80 Z" fill="#fbb433" fill-rule="nonzero" node-id="859" stroke="none" target-height="79.5" target-width="144.59999" target-x="181.7" target-y="259.4"></path><path d="M 57.90 694.00 L 127.80 694.00 L 131.90 694.70 L 133.60 695.60 L 136.60 698.10 L 138.60 701.50 L 139.30 705.50 L 139.30 743.30 L 138.60 747.30 L 137.70 749.10 L 135.20 752.10 L 131.90 754.00 L 129.90 754.60 L 111.10 754.80 L 111.00 766.20 L 98.40 754.80 L 57.90 754.80 L 53.80 754.00 L 52.10 753.20 L 49.10 750.70 L 47.10 747.30 L 46.40 743.30 L 46.40 705.50 L 46.60 703.20 L 47.30 701.10 L 48.30 699.10 L 49.70 697.40 L 51.50 695.90 L 53.50 694.90 L 55.60 694.20 L 57.90 694.00 Z" fill="#7689d6" fill-rule="nonzero" node-id="861" stroke="none" target-height="72.20001" target-width="92.9" target-x="46.4" target-y="694"></path><path d="M 84.30 718.40 L 73.30 723.60 L 84.30 728.70 L 84.30 732.90 L 69.50 725.70 L 69.50 721.40 L 84.30 714.30 Z" fill="#ffffff" fill-rule="nonzero" node-id="863" stroke="none" target-height="18.600037" target-width="14.800003" target-x="69.5" target-y="714.3"></path><path d="M 117.90 721.40 L 117.90 725.70 L 103.10 732.90 L 103.10 728.70 L 114.10 723.60 L 103.10 718.40 L 103.10 714.30 Z" fill="#ffffff" fill-rule="nonzero" node-id="865" stroke="none" target-height="18.600037" target-width="14.800003" target-x="103.1" target-y="714.3"></path><path d="M 96.30 711.40 L 89.10 736.20 L 92.70 736.20 L 99.80 711.40 L 96.30 711.40 Z" fill="#ffffff" fill-rule="nonzero" node-id="867" stroke="none" target-height="24.799988" target-width="10.700005" target-x="89.1" target-y="711.4"></path><path d="M 337.60 652.20 L 339.10 652.30 L 339.80 652.70 L 340.30 654.20 L 339.60 655.50 L 336.50 656.90 L 345.40 657.40 L 346.60 658.40 L 347.20 661.60 L 346.90 662.40 L 342.60 666.10 L 337.70 669.70 L 335.60 669.40 L 333.50 668.30 L 329.70 665.10 L 328.30 663.10 L 327.30 661.20 L 325.10 655.20 L 337.60 652.20 Z" fill="#ff9e85" fill-rule="nonzero" node-id="869" stroke="none" target-height="17.5" target-width="22.100006" target-x="325.1" target-y="652.2"></path><g node-id="1029"><path d="M 337.60 652.20 L 339.10 652.30 L 339.80 652.70 L 340.30 654.20 L 339.60 655.50 L 336.50 656.90 L 345.40 657.40 L 346.60 658.40 L 347.20 661.60 L 346.90 662.40 L 342.60 666.10 L 337.70 669.70 L 335.60 669.40 L 333.50 668.30 L 329.70 665.10 L 328.30 663.10 L 327.30 661.20 L 325.10 655.20 L 337.60 652.20 Z" fill="#0c0c0c" fill-opacity="0.1" fill-rule="nonzero" group-id="88" node-id="873" stroke="none" target-height="17.5" target-width="22.100006" target-x="325.1" target-y="652.2"></path></g><path d="M 188.30 864.80 L 186.60 868.40 L 185.80 871.10 L 185.40 874.00 L 185.70 877.20 L 186.20 879.40 L 187.30 881.60 L 190.70 886.20 L 191.70 888.10 L 192.20 891.30 L 191.50 893.90 L 190.50 895.40 L 188.40 897.30 L 157.30 866.00 L 172.80 850.40 L 188.30 864.80 Z" fill="#213594" fill-rule="nonzero" node-id="876" stroke="none" target-height="46.899963" target-width="34.899994" target-x="157.3" target-y="850.4"></path><path d="M 189.60 648.60 L 190.30 718.50 L 190.00 752.10 L 189.20 763.60 L 186.60 779.60 L 184.40 789.60 L 179.20 809.50 L 173.60 827.80 L 163.30 857.10 L 187.10 874.30 L 196.50 856.70 L 200.70 848.00 L 210.20 825.80 L 217.90 804.10 L 223.10 785.50 L 225.20 775.90 L 226.90 766.30 L 228.10 756.60 L 229.50 741.30 L 237.00 647.30 L 189.50 648.60 Z" fill="#697e93" fill-rule="nonzero" node-id="878" stroke="none" target-height="227" target-width="73.7" target-x="163.3" target-y="647.3"></path><path d="M 263.00 874.50 L 264.30 878.30 L 265.60 880.70 L 267.40 883.00 L 269.90 885.20 L 271.80 886.30 L 274.10 887.10 L 279.70 887.90 L 281.70 888.60 L 284.40 890.50 L 285.70 892.70 L 286.10 894.60 L 285.90 897.40 L 241.90 897.40 L 241.90 875.30 L 263.00 874.50 Z" fill="#213594" fill-rule="nonzero" node-id="880" stroke="none" target-height="22.900024" target-width="44.200012" target-x="241.9" target-y="874.5"></path><path d="M 268.60 651.10 L 271.00 725.90 L 271.80 763.90 L 268.40 881.50 L 240.00 882.10 L 235.40 759.70 L 233.80 745.80 L 230.30 722.60 L 226.60 704.00 L 221.50 682.40 L 219.30 670.20 L 217.80 657.90 L 216.90 645.40 L 268.60 651.00 Z" fill="#697e93" fill-rule="nonzero" node-id="882" stroke="none" target-height="236.69995" target-width="54.899994" target-x="216.9" target-y="645.4"></path><path d="M 231.10 727.40 L 233.40 690.90 L 234.70 700.20 L 235.50 709.70 L 235.90 719.10 L 234.60 750.80 L 231.10 727.40 Z" fill="#697e93" fill-rule="nonzero" node-id="884" stroke="none" target-height="59.899963" target-width="4.799988" target-x="231.1" target-y="690.9"></path><path d="M 189.20 648.60 L 189.20 647.80 Z" fill="#333333" fill-rule="nonzero" node-id="886" stroke="none" target-height="0.7999878" target-width="0" target-x="189.2" target-y="647.8"></path><path d="M 189.40 648.60 L 189.30 647.80 Z" fill="#333333" fill-rule="nonzero" node-id="888" stroke="none" target-height="0.7999878" target-width="0.099990845" target-x="189.3" target-y="647.8"></path><path d="M 249.80 515.70 L 252.30 512.10 L 254.20 506.80 L 254.90 500.70 L 254.40 497.70 L 253.90 497.10 L 253.00 496.70 L 251.80 496.90 L 248.70 498.80 L 248.20 496.20 L 247.70 495.30 L 247.00 494.60 L 246.10 494.20 L 244.70 494.40 L 242.50 495.70 L 241.60 496.70 L 240.50 498.40 L 239.40 501.50" fill="#0c0c0c" fill-rule="nonzero" node-id="890" stroke="none" target-height="21.5" target-width="15.5" target-x="239.4" target-y="494.2"></path><path d="M 224.20 497.80 L 219.60 500.00 L 215.90 503.50 L 213.80 506.80 L 212.50 511.30 L 212.50 517.20 L 213.00 520.40 L 215.60 528.40 L 220.90 528.10" fill="#0c0c0c" fill-rule="nonzero" node-id="892" stroke="none" target-height="30.600037" target-width="11.699997" target-x="212.5" target-y="497.8"></path><g node-id="1030"><path d="M 249.20 555.20 L 248.50 558.60 L 246.30 563.10 L 242.90 566.70 L 238.70 569.00 L 236.20 569.60 L 233.10 570.00 L 229.40 570.00 L 224.60 568.90 L 219.80 566.30 L 215.60 562.20 L 214.20 560.10 L 211.50 555.20 L 215.30 554.30 L 218.10 553.00 L 220.10 550.80 L 220.70 549.50 L 221.10 547.90 L 221.20 544.80 L 221.00 531.60 L 241.00 536.10 L 240.50 543.50 L 240.60 546.30 L 241.10 549.00 L 242.00 551.30 L 242.90 552.60 L 244.10 553.60 L 245.60 554.30 L 249.20 555.20 Z" fill="#fdc8aa" fill-rule="nonzero" group-id="89" node-id="895" stroke="none" target-height="38.400024" target-width="37.699997" target-x="211.5" target-y="531.6"></path></g><g node-id="1031"><path d="M 241.20 549.70 L 240.60 546.60 L 240.80 539.40 L 237.80 538.80 L 234.90 537.80 L 232.20 536.30 L 229.80 534.60 L 227.80 542.40 L 227.90 543.20 L 228.70 544.40 L 230.20 546.00 L 232.20 547.30 L 234.80 548.50 L 237.70 549.40 L 241.30 549.70 Z" fill="#0c0c0c" fill-opacity="0.22" fill-rule="nonzero" group-id="90" node-id="899" stroke="none" target-height="15.100037" target-width="13.5" target-x="227.8" target-y="534.6"></path></g><path d="M 238.30 545.00 L 232.90 544.60 L 230.10 543.90 L 227.40 542.90 L 225.00 541.40 L 222.80 539.50 L 221.40 537.90 L 219.40 533.80 L 218.80 531.20 L 217.10 518.10 L 217.20 514.80 L 217.70 511.70 L 218.70 508.80 L 220.10 506.30 L 221.90 504.10 L 224.20 502.30 L 226.80 501.00 L 230.00 500.20 L 233.30 500.10 L 236.40 500.50 L 239.30 501.50 L 242.00 503.00 L 244.40 505.00 L 246.50 507.40 L 248.20 510.20 L 249.40 513.30 L 250.20 516.70 L 250.90 520.90 L 251.10 529.70 L 250.50 534.70 L 249.10 539.30 L 248.00 541.10 L 246.60 542.50 L 244.90 543.60 L 240.80 544.80 L 238.30 545.00 Z" fill="#fdc8aa" fill-rule="nonzero" node-id="902" stroke="none" target-height="44.899994" target-width="34" target-x="217.1" target-y="500.1"></path><path d="M 219.90 534.30 L 218.40 534.20 L 217.00 533.70 L 215.70 532.90 L 213.90 530.30 L 213.50 528.80 L 213.50 527.40 L 214.60 525.10 L 216.80 523.70 L 218.30 523.30 L 220.10 525.10 L 222.50 533.90 L 219.90 534.30 Z" fill="#fdc8aa" fill-rule="nonzero" node-id="904" stroke="none" target-height="11" target-width="9" target-x="213.5" target-y="523.3"></path><path d="M 221.30 529.00 L 222.00 528.70 L 222.20 528.00 L 222.10 524.30 L 222.90 516.90 L 224.10 513.60 L 225.60 512.30 L 228.70 512.20 L 238.00 513.10 L 240.60 512.90 L 245.30 511.80 L 247.10 511.80 L 248.30 512.00 L 249.40 513.00 L 249.50 510.60 L 248.70 506.60 L 246.60 502.10 L 244.80 499.90 L 242.10 498.10 L 240.30 497.50 L 237.40 496.90 L 231.00 496.60 L 227.90 496.90 L 222.80 498.20 L 220.10 499.80 L 218.10 501.50 L 216.70 503.40 L 215.00 507.80 L 214.70 510.10 L 214.80 513.60 L 216.10 519.80 L 217.70 524.00 L 218.90 528.30 L 219.20 528.80 L 219.80 529.00 L 221.30 528.90 Z" fill="#0c0c0c" fill-rule="nonzero" node-id="906" stroke="none" target-height="32.399994" target-width="34.800003" target-x="214.7" target-y="496.6"></path><g node-id="1032"><path d="M 242.20 498.70 L 242.70 501.90 L 242.00 504.50 L 241.30 505.30 L 240.40 505.90 L 238.10 505.80 L 237.00 505.20 L 235.10 503.10 L 234.40 501.50 L 233.90 498.40 L 234.60 495.80 L 235.30 494.90 L 236.20 494.30 L 238.40 494.40 L 240.60 495.90 L 242.20 498.70 Z" fill="#0c0c0c" fill-rule="nonzero" group-id="91" node-id="910" stroke="none" target-height="11.600006" target-width="8.800003" target-x="233.9" target-y="494.3"></path></g><path d="M 246.60 576.80 L 273.30 638.50 L 274.60 640.90 L 276.30 642.90 L 278.30 644.60 L 325.00 676.40 L 341.10 653.10 L 294.80 620.80 L 299.80 627.00 L 273.10 565.30 L 246.60 576.80 Z" fill="#439e7b" fill-rule="nonzero" node-id="913" stroke="none" target-height="111.10004" target-width="94.5" target-x="246.6" target-y="565.3"></path><path d="M 272.80 591.30 L 268.70 651.00 L 189.70 651.00 L 187.60 618.20 L 185.60 593.60 L 182.30 572.80 L 182.30 570.60 L 183.10 567.40 L 184.60 565.20 L 186.40 563.10 L 188.70 561.30 L 192.50 559.00 L 196.50 557.30 L 200.70 556.00 L 204.30 555.30 L 215.20 554.30 L 216.00 557.70 L 217.10 559.90 L 219.40 562.70 L 223.10 564.90 L 225.60 565.70 L 228.80 566.10 L 235.20 565.70 L 237.40 565.20 L 241.20 563.30 L 243.90 560.40 L 244.80 558.70 L 245.30 556.90 L 245.60 554.30 L 253.90 555.40 L 260.10 556.70 L 264.40 558.10 L 267.40 559.50 L 269.90 561.30 L 271.80 563.20 L 273.00 565.10 L 273.90 567.30 L 274.70 572.30 L 274.50 576.30 L 272.80 591.30 Z" fill="#88d493" fill-rule="nonzero" node-id="915" stroke="none" target-height="96.70001" target-width="92.40001" target-x="182.3" target-y="554.3"></path><path d="M 273.40 625.90 L 273.00 624.90 L 271.90 624.00 L 274.10 623.40 L 274.90 622.40 L 274.80 621.00 L 273.90 620.10 L 273.20 620.00 L 274.90 619.10 L 275.40 617.90 L 275.20 617.10 L 273.90 616.10 L 271.60 616.40 L 272.50 615.50 L 272.60 614.30 L 272.30 613.60 L 270.90 613.00 L 261.60 614.80 L 264.10 612.80 L 264.40 611.40 L 263.60 610.20 L 262.90 609.90 L 261.50 610.20 L 250.30 618.40 L 249.10 619.60 L 248.30 620.90 L 247.80 624.00 L 248.90 627.00 L 251.60 629.60 L 255.00 631.00 L 256.80 631.10 L 271.80 628.00 L 272.90 627.30 L 273.30 626.00 Z" fill="#fdc8aa" fill-rule="nonzero" node-id="917" stroke="none" target-height="21.199951" target-width="27.59999" target-x="247.8" target-y="609.9"></path><g node-id="1033"><path d="M 263.10 618.10 L 271.60 616.40 L 263.10 618.10 Z" fill="#fdc8aa" fill-opacity="0.25" fill-rule="nonzero" group-id="92" node-id="921" stroke="none" target-height="1.6999512" target-width="8.5" target-x="263.1" target-y="616.4"></path></g><g node-id="1034"><path d="M 263.80 621.80 L 273.20 619.80 L 263.80 621.80 Z" fill="#fdc8aa" fill-opacity="0.25" fill-rule="nonzero" group-id="93" node-id="926" stroke="none" target-height="2" target-width="9.400024" target-x="263.8" target-y="619.8"></path></g><g node-id="1035"><path d="M 264.50 625.70 L 272.10 624.10 L 264.50 625.70 Z" fill="#fdc8aa" fill-opacity="0.25" fill-rule="nonzero" group-id="94" node-id="931" stroke="none" target-height="1.6000366" target-width="7.600006" target-x="264.5" target-y="624.1"></path></g><g node-id="1036"><path d="M 258.00 636.00 L 185.40 649.10 L 182.50 648.80 L 179.70 647.90 L 177.20 646.50 L 175.00 644.50 L 172.40 640.80 L 171.20 636.60 L 171.20 632.20 L 181.20 572.70 L 181.80 570.10 L 182.90 567.80 L 184.30 565.80 L 186.10 564.10 L 188.00 562.70 L 190.30 561.60 L 192.70 560.90 L 195.20 560.70 L 197.80 560.90 L 200.30 561.50 L 202.60 562.60 L 204.60 564.00 L 206.40 565.80 L 207.80 567.70 L 208.90 570.00 L 209.60 572.40 L 209.80 574.80 L 209.60 577.50 L 202.80 618.40 L 254.80 611.90 L 258.00 636.00 Z" fill="#439e7b" fill-rule="nonzero" group-id="95" node-id="935" stroke="none" target-height="88.39996" target-width="86.8" target-x="171.2" target-y="560.7"></path></g><path d="M 338.60 662.30 L 339.10 663.10 L 340.10 663.60 L 338.30 664.40 L 338.00 664.90 L 337.80 666.10 L 338.10 666.60 L 339.00 667.20 L 339.60 667.20 L 338.30 668.20 L 338.10 669.30 L 338.40 669.90 L 339.60 670.50 L 341.50 669.90 L 340.80 671.30 L 341.30 672.30 L 341.90 672.60 L 343.10 672.40 L 345.40 671.20 L 346.30 670.40 L 346.70 669.30 L 347.10 661.80 L 346.60 658.60 L 346.30 657.90 L 345.40 657.80 L 339.40 660.30 L 338.60 661.10 L 338.40 662.20 Z" fill="#ff9e85" fill-rule="nonzero" node-id="938" stroke="none" target-height="14.799988" target-width="9.300018" target-x="337.8" target-y="657.8"></path><path d="M 411.30 678.70 L 325.40 678.70 L 346.10 617.80 L 432.00 617.80 Z" fill="#3a3a77" fill-rule="nonzero" node-id="940" stroke="none" target-height="60.900024" target-width="106.600006" target-x="325.4" target-y="617.8"></path></svg>