<?xml version="1.0" standalone="no"?><!DOCTYPE svg PUBLIC "-//W3C//DTD SVG 1.1//EN" "http://www.w3.org/Graphics/SVG/1.1/DTD/svg11.dtd"><svg t="1742213884874" class="icon" viewBox="0 0 1024 1024" version="1.1" xmlns="http://www.w3.org/2000/svg" p-id="813" xmlns:xlink="http://www.w3.org/1999/xlink" width="200" height="200"><path d="M484.078933 83.882667L331.178667 320.512 77.312 382.071467c-25.378133 6.144-34.730667 37.358933-16.930133 56.456533l185.1904 198.7072-30.941867 280.6272c-3.003733 27.2384 25.685333 46.728533 49.902933 33.8944l248.234667-131.464533L761.002667 951.637333c23.381333 12.373333 51.370667-5.444267 50.039466-31.880533l-14.165333-282.5728 169.352533-199.867733a34.133333 34.133333 0 0 0-18.005333-55.2448L694.272 320.512 541.422933 83.882667a34.133333 34.133333 0 0 0-57.344 0z m28.654934 81.408l124.177066 192.256 2.286934 3.310933a68.266667 68.266667 0 0 0 38.980266 25.992533l200.192 48.5376-133.614933 157.661867-2.474667 3.106133a68.266667 68.266667 0 0 0-13.6192 44.4416l11.178667 222.6176-195.157333-103.253333-3.7888-1.877333a68.266667 68.266667 0 0 0-60.074667 1.877333l-191.2832 101.290667 23.893333-216.541867 0.3072-3.9424a68.266667 68.266667 0 0 0-18.2272-50.090667l-145.425066-156.023466 197.188266-47.786667a68.266667 68.266667 0 0 0 41.250134-29.303467l124.2112-192.273066z" fill="#444444" p-id="814"></path><path d="M346.9312 452.266667l113.6128 113.6128-48.264533 48.264533-113.6128-113.6128a34.133333 34.133333 0 1 1 48.264533-48.264533z" fill="#00B386" p-id="815"></path></svg>